<svg width="64" height="64" viewBox="0 0 64 64" fill="none" xmlns="http://www.w3.org/2000/svg">
<path fill-rule="evenodd" clip-rule="evenodd" d="M63.3529 33.459V11.584C63.3529 8.68318 62.2005 5.90118 60.1493 3.85C58.0982 1.79882 55.3162 0.646484 52.4154 0.646484H11.582C8.68123 0.646484 5.89923 1.79882 3.84805 3.85C1.79687 5.90118 0.644531 8.68318 0.644531 11.584V52.4173C0.644531 55.3181 1.79687 58.1001 3.84805 60.1513C5.89923 62.2025 8.68123 63.3548 11.582 63.3548H33.457C34.0372 63.3548 34.5936 63.1244 35.0038 62.7141C35.4141 62.3039 35.6445 61.7475 35.6445 61.1673C35.6445 60.5872 35.4141 60.0308 35.0038 59.6205C34.5936 59.2103 34.0372 58.9798 33.457 58.9798H11.582C9.84155 58.9798 8.17235 58.2884 6.94164 57.0577C5.71094 55.827 5.01953 54.1578 5.01953 52.4173V11.584C5.01953 9.8435 5.71094 8.1743 6.94164 6.9436C8.17235 5.71289 9.84155 5.02148 11.582 5.02148H52.4154C54.1558 5.02148 55.825 5.71289 57.0558 6.9436C58.2865 8.1743 58.9779 9.8435 58.9779 11.584V33.459C58.9779 34.0391 59.2083 34.5955 59.6186 35.0058C60.0288 35.416 60.5852 35.6465 61.1654 35.6465C61.7455 35.6465 62.3019 35.416 62.7122 35.0058C63.1224 34.5955 63.3529 34.0391 63.3529 33.459Z" fill="#F97E27"/>
<path fill-rule="evenodd" clip-rule="evenodd" d="M61.1654 15.2295H2.83203C2.25187 15.2295 1.69547 15.46 1.28524 15.8702C0.874999 16.2804 0.644531 16.8368 0.644531 17.417C0.644531 17.9972 0.874999 18.5536 1.28524 18.9638C1.69547 19.374 2.25187 19.6045 2.83203 19.6045H61.1654C61.7455 19.6045 62.3019 19.374 62.7122 18.9638C63.1224 18.5536 63.3529 17.9972 63.3529 17.417C63.3529 16.8368 63.1224 16.2804 62.7122 15.8702C62.3019 15.46 61.7455 15.2295 61.1654 15.2295Z" fill="#F97E27"/>
<path d="M34.1875 12.3135C35.3956 12.3135 36.375 11.3341 36.375 10.126C36.375 8.91785 35.3956 7.93848 34.1875 7.93848C32.9794 7.93848 32 8.91785 32 10.126C32 11.3341 32.9794 12.3135 34.1875 12.3135Z" fill="#F97E27"/>
<path d="M42.207 12.3135C43.4152 12.3135 44.3945 11.3341 44.3945 10.126C44.3945 8.91785 43.4152 7.93848 42.207 7.93848C40.9989 7.93848 40.0195 8.91785 40.0195 10.126C40.0195 11.3341 40.9989 12.3135 42.207 12.3135Z" fill="#F97E27"/>
<path d="M50.2266 12.3135C51.4347 12.3135 52.4141 11.3341 52.4141 10.126C52.4141 8.91785 51.4347 7.93848 50.2266 7.93848C49.0184 7.93848 48.0391 8.91785 48.0391 10.126C48.0391 11.3341 49.0184 12.3135 50.2266 12.3135Z" fill="#F97E27"/>
<path fill-rule="evenodd" clip-rule="evenodd" d="M43.6641 28.3545C35.2116 28.3545 28.3516 35.2145 28.3516 43.667C28.3516 52.1195 35.2116 58.9795 43.6641 58.9795C52.1166 58.9795 58.9766 52.1195 58.9766 43.667C58.9766 35.2145 52.1166 28.3545 43.6641 28.3545ZM43.6641 32.7295C49.7016 32.7295 54.6016 37.6295 54.6016 43.667C54.6016 49.7045 49.7016 54.6045 43.6641 54.6045C37.6266 54.6045 32.7266 49.7045 32.7266 43.667C32.7266 37.6295 37.6266 32.7295 43.6641 32.7295Z" fill="#F97E27"/>
<path fill-rule="evenodd" clip-rule="evenodd" d="M52.3278 55.4214L59.6195 62.7131C60.0294 63.1231 60.5855 63.3534 61.1653 63.3534C61.7451 63.3534 62.3012 63.1231 62.7111 62.7131C63.1211 62.3031 63.3514 61.7471 63.3514 61.1673C63.3514 60.5875 63.1211 60.0314 62.7111 59.6214L55.4195 52.3298C55.0095 51.9198 54.4534 51.6895 53.8736 51.6895C53.2938 51.6895 52.7378 51.9198 52.3278 52.3298C51.9178 52.7397 51.6875 53.2958 51.6875 53.8756C51.6875 54.4554 51.9178 55.0114 52.3278 55.4214Z" fill="#F97E27"/>
</svg>
