<svg width="70" height="70" viewBox="0 0 70 70" fill="none" xmlns="http://www.w3.org/2000/svg">
<path d="M35.157 0C35.1383 0.0187551 35.1008 0.0187551 35.0445 0.0187551C16.0643 0.0187551 0.628906 15.4542 0.628906 34.4343C0.628906 42.1802 3.27337 49.701 8.11219 55.7589L3.10458 67.387C2.69197 68.3435 3.14209 69.4501 4.07984 69.844C4.41743 69.994 4.79254 70.0315 5.14888 69.9752L23.5101 66.7494C27.1861 68.081 31.0497 68.7562 34.9507 68.7374C53.9309 68.7374 69.3663 53.302 69.3663 34.3218C69.4038 15.3979 54.0809 0.0187551 35.157 0ZM34.9695 65.0051C31.3497 65.0051 27.7675 64.3487 24.3729 63.0734C24.054 62.9421 23.7164 62.9233 23.3788 62.9796L7.92464 65.6803L12.0132 56.1715C12.2946 55.5151 12.182 54.7461 11.7132 54.2022C9.50006 51.6328 7.73709 48.707 6.49925 45.5374C5.11137 41.9926 4.39868 38.2229 4.39868 34.4156C4.39868 17.4985 18.1649 3.75102 35.0633 3.75102C51.9241 3.71351 65.6153 17.3485 65.6341 34.2093V34.3218C65.6341 51.2577 51.8678 65.0051 34.9695 65.0051Z" fill="#F97E27"/>
<path d="M33.5072 27.5137H23.3794C22.3479 27.5137 21.5039 28.3577 21.5039 29.3892C21.5039 30.4207 22.3479 31.2647 23.3794 31.2647H33.5072C34.5387 31.2647 35.3827 30.4207 35.3827 29.3892C35.3827 28.3577 34.5387 27.5137 33.5072 27.5137ZM46.6357 36.8912H23.3794C22.3479 36.8912 21.5039 37.7352 21.5039 38.7667C21.5039 39.7983 22.3479 40.6422 23.3794 40.6422H46.6357C47.6673 40.6422 48.5112 39.7983 48.5112 38.7667C48.5112 37.7352 47.6673 36.8912 46.6357 36.8912Z" fill="#F97E27"/>
</svg>
