<svg width="70" height="70" viewBox="0 0 70 70" fill="none" xmlns="http://www.w3.org/2000/svg">
<path d="M59.1998 52.72H56.8575V50.3778C56.8575 49.2453 55.9393 48.3271 54.8068 48.3271C53.6743 48.3271 52.7562 49.2453 52.7562 50.3778V52.72H50.4139C49.2814 52.72 48.3633 53.6382 48.3633 54.7707C48.3633 55.9032 49.2814 56.8213 50.4139 56.8213H52.7562V59.1636C52.7562 60.2961 53.6743 61.2142 54.8068 61.2142C55.9393 61.2142 56.8575 60.2961 56.8575 59.1636V56.8213H59.1998C61.9172 56.7208 61.9163 52.8201 59.1998 52.72Z" fill="#F97E27"/>
<path d="M59.6699 40.3377C66.4666 21.0581 51.198 -0.377468 30.6445 0.00504594C13.7423 0.00463581 0.0401667 13.7069 0.0401667 30.6094C-0.34098 51.1592 21.0935 66.4364 40.3731 59.6345C42.4072 65.6543 48.1085 70 54.8059 70C72.103 69.6607 75.766 46.0362 59.6699 40.3377ZM4.14146 30.6094C4.14146 15.9954 16.0308 4.10593 30.6448 4.10593C48.6354 3.77646 61.9342 22.7803 55.5965 39.5614C52.5922 39.405 49.6192 40.1318 47.0699 41.6493C44.6265 39.3606 41.7388 37.6209 38.6173 36.5192C48.3327 29.0496 43.06 13.204 30.6447 13.1836C18.2385 13.2037 12.9601 29.0341 22.6586 36.5086C17.2777 38.3995 12.7482 42.1488 9.88518 47.0817C6.16257 42.4091 4.14146 36.6592 4.14146 30.6094ZM30.6448 35.1482C25.72 35.1482 21.7132 31.1414 21.7132 26.2165C22.1623 14.3836 39.1294 14.3869 39.5766 26.2167C39.5766 31.1415 35.5698 35.1482 30.6448 35.1482ZM39.5968 55.5606C30.562 58.8763 19.8875 56.7803 12.8404 50.2356C18.3541 38.7039 34.3529 35.604 43.8115 44.2295C40.9153 47.2216 39.3733 51.3306 39.5968 55.5606ZM54.8059 65.8987C48.6698 65.8987 43.6779 60.9066 43.6779 54.7705C44.2373 40.0278 65.377 40.0319 65.9342 54.7707C65.9342 60.9067 60.9421 65.8987 54.8059 65.8987Z" fill="#F97E27"/>
</svg>
