<svg width="64" height="64" viewBox="0 0 64 64" fill="none" xmlns="http://www.w3.org/2000/svg">
<path d="M26.5313 54.9688H25.4835V47.0292C25.4876 43.8236 24.2208 40.7471 21.9605 38.4739L13.3516 29.8661C12.8023 29.3032 12.108 28.9032 11.3456 28.7102C10.5832 28.5171 9.78223 28.5387 9.03126 28.7723V21.8817C9.03126 20.7214 8.57033 19.6086 7.74986 18.7881C6.92938 17.9677 5.81659 17.5067 4.65626 17.5067C3.49594 17.5067 2.38314 17.9677 1.56267 18.7881C0.7422 19.6086 0.281264 20.7214 0.281264 21.8817V36.9339C0.279815 37.5094 0.392454 38.0794 0.612669 38.6111C0.832883 39.1428 1.1563 39.6255 1.56423 40.0314L10.5767 49.0439C10.7811 49.2468 10.9431 49.4883 11.0533 49.7544C11.1635 50.0205 11.2198 50.3058 11.2188 50.5938V54.9688H10.125C9.83493 54.9688 9.55673 55.084 9.35162 55.2891C9.1465 55.4942 9.03126 55.7724 9.03126 56.0625V62.625C9.03126 62.9151 9.1465 63.1933 9.35162 63.3984C9.55673 63.6035 9.83493 63.7188 10.125 63.7188H26.5313C26.8213 63.7188 27.0995 63.6035 27.3047 63.3984C27.5098 63.1933 27.625 62.9151 27.625 62.625V56.0625C27.625 55.7724 27.5098 55.4942 27.3047 55.2891C27.0995 55.084 26.8213 54.9688 26.5313 54.9688ZM12.1233 47.4963L3.11079 38.4849C2.90649 38.2817 2.74455 38.04 2.63434 37.7737C2.52413 37.5075 2.46785 37.2221 2.46876 36.9339V21.8894C2.46876 21.3092 2.69923 20.7528 3.10947 20.3426C3.5197 19.9324 4.0761 19.7019 4.65626 19.7019C5.23642 19.7019 5.79282 19.9324 6.20306 20.3426C6.6133 20.7528 6.84376 21.3092 6.84376 21.8894V30.25C6.17923 31.1221 5.85811 32.2078 5.94138 33.3011C6.02466 34.3944 6.50653 35.419 7.29548 36.1803L13.3516 42.2364C13.5579 42.4357 13.8341 42.5459 14.1209 42.5434C14.4077 42.5409 14.682 42.4259 14.8848 42.2231C15.0876 42.0203 15.2026 41.746 15.2051 41.4592C15.2076 41.1724 15.0974 40.8961 14.8981 40.6899L8.84204 34.6338C8.41759 34.2341 8.15936 33.6891 8.11881 33.1076C8.07827 32.526 8.2584 31.9505 8.62329 31.4958C8.82173 31.275 9.06302 31.0969 9.33248 30.9724C9.60194 30.8478 9.89393 30.7794 10.1907 30.7714C10.4874 30.7633 10.7827 30.8157 11.0585 30.9254C11.3344 31.035 11.585 31.1997 11.7952 31.4094L20.4041 40.0172C22.2528 41.8775 23.2891 44.3945 23.2861 47.0172V54.9688H13.4063V50.5938C13.4077 50.0183 13.2951 49.4482 13.0749 48.9166C12.8546 48.3849 12.5312 47.9022 12.1233 47.4963ZM25.4375 61.5313H11.2188V57.1563H25.4375V61.5313ZM59.3438 17.5144C58.1834 17.5144 57.0706 17.9753 56.2502 18.7958C55.4297 19.6163 54.9688 20.7291 54.9688 21.8894V28.78C54.6081 28.669 54.2346 28.6051 53.8575 28.5897C53.2632 28.5706 52.6714 28.6745 52.1192 28.8949C51.567 29.1153 51.0663 29.4475 50.6484 29.8705L42.0395 38.4783C39.7801 40.7502 38.5133 43.8251 38.5166 47.0292V54.9688H37.4688C37.1787 54.9688 36.9005 55.084 36.6954 55.2891C36.4902 55.4942 36.375 55.7724 36.375 56.0625V62.625C36.375 62.9151 36.4902 63.1933 36.6954 63.3984C36.9005 63.6035 37.1787 63.7188 37.4688 63.7188H53.875C54.1651 63.7188 54.4433 63.6035 54.6484 63.3984C54.8535 63.1933 54.9688 62.9151 54.9688 62.625V56.0625C54.9688 55.7724 54.8535 55.4942 54.6484 55.2891C54.4433 55.084 54.1651 54.9688 53.875 54.9688H52.7813V50.5938C52.7803 50.3058 52.8365 50.0205 52.9467 49.7544C53.0569 49.4883 53.2189 49.2468 53.4233 49.0439L62.4358 40.0314C62.8437 39.6255 63.1671 39.1428 63.3874 38.6111C63.6076 38.0794 63.7202 37.5094 63.7188 36.9339V21.8894C63.7188 20.7291 63.2578 19.6163 62.4374 18.7958C61.6169 17.9753 60.5041 17.5144 59.3438 17.5144ZM52.7813 61.5313H38.5625V57.1563H52.7813V61.5313ZM61.5313 36.9339C61.5322 37.2221 61.4759 37.5075 61.3657 37.7737C61.2555 38.04 61.0935 38.2817 60.8892 38.4849L51.8767 47.4963C51.4688 47.9022 51.1454 48.3849 50.9252 48.9166C50.705 49.4482 50.5923 50.0183 50.5938 50.5938V54.9688H40.7041V47.0194C40.7008 44.3966 41.7371 41.8795 43.5861 40.0194L52.195 31.4116C52.4052 31.2019 52.6558 31.0372 52.9316 30.9275C53.2075 30.8179 53.5028 30.7655 53.7995 30.7735C54.0962 30.7816 54.3882 30.85 54.6577 30.9746C54.9272 31.0991 55.1685 31.2772 55.3669 31.498C55.7318 31.9527 55.9119 32.5282 55.8714 33.1098C55.8308 33.6913 55.5726 34.2363 55.1481 34.6359L49.092 40.692C48.8928 40.8983 48.7826 41.1746 48.7851 41.4614C48.7875 41.7482 48.9026 42.0225 49.1054 42.2253C49.3082 42.4281 49.5825 42.5431 49.8693 42.5456C50.156 42.5481 50.4323 42.4378 50.6386 42.2386L56.6947 36.1825C57.4857 35.4223 57.9698 34.3979 58.0549 33.3041C58.14 32.2103 57.8202 31.1234 57.1563 30.25V21.8894C57.1563 21.3092 57.3867 20.7528 57.797 20.3426C58.2072 19.9324 58.7636 19.7019 59.3438 19.7019C59.9239 19.7019 60.4803 19.9324 60.8906 20.3426C61.3008 20.7528 61.5313 21.3092 61.5313 21.8894V36.9339ZM48.4063 16.6875C48.4063 13.4427 47.4441 10.2707 45.6413 7.57268C43.8386 4.87469 41.2763 2.77186 38.2784 1.53011C35.2806 0.288359 31.9818 -0.0365399 28.7993 0.596499C25.6168 1.22954 22.6935 2.79208 20.399 5.08654C18.1046 7.38099 16.542 10.3043 15.909 13.4868C15.276 16.6693 15.6009 19.9681 16.8426 22.9659C18.0844 25.9638 20.1872 28.5261 22.8852 30.3288C25.5832 32.1315 28.7552 33.0938 32 33.0938C36.3497 33.0888 40.5198 31.3587 43.5955 28.283C46.6712 25.2073 48.4013 21.0372 48.4063 16.6875ZM32 30.9063C29.1878 30.9063 26.4388 30.0723 24.1005 28.51C21.7622 26.9476 19.9398 24.7269 18.8636 22.1288C17.7874 19.5306 17.5058 16.6717 18.0545 13.9136C18.6031 11.1554 19.9573 8.62186 21.9458 6.63333C23.9344 4.6448 26.4679 3.2906 29.2261 2.74197C31.9842 2.19333 34.8432 2.47491 37.4413 3.55109C40.0394 4.62728 42.2601 6.44973 43.8225 8.78799C45.3848 11.1263 46.2188 13.8753 46.2188 16.6875C46.2144 20.4572 44.715 24.0713 42.0494 26.7369C39.3838 29.4025 35.7697 30.9019 32 30.9063Z" fill="#F97E27"/>
<path d="M35.8281 8.21113C34.4488 8.20026 33.104 8.64212 32 9.46895C30.8955 8.64329 29.5508 8.2026 28.1719 8.21442C25.4123 8.21442 23.25 10.7771 23.25 14.0474C23.25 17.2696 27.0387 21.0102 31.2606 24.8755C31.4624 25.0606 31.7262 25.1633 32 25.1633C32.2738 25.1633 32.5376 25.0606 32.7394 24.8755C36.9612 21.0058 40.75 17.2652 40.75 14.0474C40.75 10.7738 38.5877 8.21113 35.8281 8.21113ZM32 22.5852C29.258 20.0543 25.4375 16.3508 25.4375 14.0441C25.4375 12.2525 26.4602 10.3986 28.1719 10.3986C28.7262 10.3826 29.2777 10.4838 29.7902 10.6956C30.3026 10.9075 30.7646 11.2252 31.1458 11.628C31.2525 11.751 31.3845 11.8495 31.5328 11.9168C31.6811 11.984 31.8422 12.0185 32.005 12.0178C32.1679 12.017 32.3286 11.9811 32.4763 11.9126C32.624 11.844 32.7552 11.7443 32.8608 11.6204C33.2428 11.2209 33.7041 10.9059 34.2152 10.6955C34.7262 10.4851 35.2757 10.384 35.8281 10.3986C37.5398 10.3986 38.5625 12.258 38.5625 14.0441C38.5625 16.3596 34.742 20.0543 32 22.5852Z" fill="#F97E27"/>
</svg>
