<svg width="56" height="62" viewBox="0 0 56 62" fill="none" xmlns="http://www.w3.org/2000/svg">
<path d="M40.3977 13.8609C38.4462 12.1014 36.1414 10.7791 33.6376 9.98254C31.1337 9.18595 28.4886 8.93349 25.8792 9.24203C21.9407 9.6918 18.2491 11.3893 15.344 14.0865C12.4389 16.7836 10.4724 20.3392 9.73189 24.2335C8.99138 28.1279 9.51564 32.1571 11.2281 35.7323C12.9405 39.3075 15.7514 42.2414 19.25 44.1053V55.0625C19.2506 55.6425 19.4812 56.1985 19.8913 56.6087C20.3015 57.0188 20.8575 57.2494 21.4375 57.25H23.625V59.4375C23.6256 60.0175 23.8562 60.5735 24.2663 60.9837C24.6765 61.3938 25.2325 61.6244 25.8125 61.625H30.1875C30.7675 61.6244 31.3235 61.3938 31.7337 60.9837C32.1438 60.5735 32.3744 60.0175 32.375 59.4375V57.25H34.5625C35.1425 57.2494 35.6985 57.0188 36.1087 56.6087C36.5188 56.1985 36.7494 55.6425 36.75 55.0625V44.1064C39.3899 42.7004 41.6512 40.6778 43.3418 38.2105C45.0323 35.7432 46.1021 32.9042 46.4603 29.9348C46.8184 26.9654 46.4542 23.9534 45.3987 21.1549C44.3432 18.3565 42.6276 15.8542 40.3977 13.8609ZM34.5625 48.5V50.6875H21.4375V48.5H34.5625ZM30.1897 59.4375H25.8125V57.25H30.1875L30.1897 59.4375ZM31.2812 55.0625H21.4375V52.875H34.5625V55.0625H31.2812ZM35.1772 42.4538C34.9928 42.5435 34.8373 42.6832 34.7286 42.8571C34.6199 43.031 34.5624 43.232 34.5625 43.437V46.3125H29.0938V41.2966L32.0545 38.3358C32.2538 38.1295 32.364 37.8532 32.3615 37.5664C32.359 37.2797 32.244 37.0053 32.0412 36.8025C31.8384 36.5998 31.5641 36.4847 31.2773 36.4822C30.9905 36.4797 30.7143 36.59 30.508 36.7892L28 39.2972L25.492 36.7892C25.2857 36.59 25.0095 36.4797 24.7227 36.4822C24.4359 36.4847 24.1616 36.5998 23.9588 36.8025C23.756 37.0053 23.641 37.2797 23.6385 37.5664C23.636 37.8532 23.7462 38.1295 23.9455 38.3358L26.9062 41.2966V46.3125H21.4375V43.4359C21.4375 43.2312 21.38 43.0305 21.2715 42.8569C21.163 42.6832 21.0079 42.5435 20.8239 42.4538C17.6313 40.903 15.0282 38.3582 13.4056 35.2016C11.783 32.0449 11.2285 28.447 11.8255 24.9483C12.4225 21.4497 14.1388 18.2392 16.7164 15.7993C19.2939 13.3593 22.5937 11.8218 26.1198 11.4175C26.7518 11.347 27.3871 11.3116 28.023 11.3114C32.0541 11.2996 35.9451 12.7895 38.9375 15.4906C40.9436 17.2837 42.4774 19.5431 43.4034 22.0693C44.3295 24.5955 44.6195 27.3109 44.2476 29.9757C43.8757 32.6405 42.8536 35.1728 41.2713 37.349C39.689 39.5252 37.5953 41.2783 35.175 42.4538H35.1772ZM28 6.9375C28.2901 6.9375 28.5683 6.82227 28.7734 6.61715C28.9785 6.41203 29.0938 6.13383 29.0938 5.84375V1.46875C29.0938 1.17867 28.9785 0.90047 28.7734 0.695352C28.5683 0.490234 28.2901 0.375 28 0.375C27.7099 0.375 27.4317 0.490234 27.2266 0.695352C27.0215 0.90047 26.9062 1.17867 26.9062 1.46875V5.84375C26.9062 6.13383 27.0215 6.41203 27.2266 6.61715C27.4317 6.82227 27.7099 6.9375 28 6.9375ZM11.7578 13.0242C11.8594 13.1258 11.9799 13.2065 12.1126 13.2615C12.2453 13.3165 12.3876 13.3449 12.5313 13.3449C12.6749 13.345 12.8172 13.3167 12.9499 13.2618C13.0827 13.2069 13.2033 13.1263 13.3049 13.0248C13.4065 12.9232 13.4872 12.8026 13.5422 12.6699C13.5972 12.5372 13.6256 12.395 13.6256 12.2513C13.6257 12.1077 13.5974 11.9654 13.5425 11.8327C13.4876 11.6999 13.407 11.5793 13.3055 11.4777L10.2113 8.38344C10.1104 8.27897 9.98967 8.19565 9.85622 8.13833C9.72278 8.081 9.57926 8.05083 9.43403 8.04957C9.28881 8.04831 9.14478 8.07598 9.01036 8.13098C8.87595 8.18597 8.75383 8.26718 8.65113 8.36988C8.54843 8.47258 8.46722 8.5947 8.41223 8.72911C8.35723 8.86353 8.32956 9.00756 8.33082 9.15278C8.33208 9.29801 8.36225 9.44153 8.41958 9.57497C8.4769 9.70842 8.56022 9.82911 8.66469 9.93L11.7578 13.0242ZM6.125 26.625H1.75C1.45992 26.625 1.18172 26.7402 0.976602 26.9454C0.771484 27.1505 0.65625 27.4287 0.65625 27.7188C0.65625 28.0088 0.771484 28.287 0.976602 28.4921C1.18172 28.6973 1.45992 28.8125 1.75 28.8125H6.125C6.41508 28.8125 6.69328 28.6973 6.8984 28.4921C7.10352 28.287 7.21875 28.0088 7.21875 27.7188C7.21875 27.4287 7.10352 27.1505 6.8984 26.9454C6.69328 26.7402 6.41508 26.625 6.125 26.625Z" fill="#F97E27"/>
<path d="M11.7591 42.4126L8.66594 45.5068C8.56148 45.6077 8.47815 45.7284 8.42083 45.8618C8.36351 45.9953 8.33333 46.1388 8.33207 46.284C8.33081 46.4292 8.35848 46.5733 8.41348 46.7077C8.46847 46.8421 8.54969 46.9642 8.65238 47.0669C8.75508 47.1696 8.8772 47.2508 9.01162 47.3058C9.14603 47.3608 9.29006 47.3885 9.43529 47.3872C9.58051 47.386 9.72403 47.3558 9.85748 47.2985C9.99092 47.2411 10.1116 47.1578 10.2125 47.0534L13.3067 43.9591C13.506 43.7529 13.6162 43.4766 13.6137 43.1898C13.6112 42.903 13.4962 42.6287 13.2934 42.4259C13.0906 42.2231 12.8163 42.1081 12.5295 42.1056C12.2427 42.1031 11.9653 42.2133 11.7591 42.4126ZM45.79 8.38274L42.6958 11.477C42.5913 11.5779 42.508 11.6985 42.4507 11.832C42.3934 11.9654 42.3632 12.1089 42.3619 12.2542C42.3607 12.3994 42.3883 12.5434 42.4433 12.6778C42.4983 12.8123 42.5795 12.9344 42.6822 13.0371C42.7849 13.1398 42.907 13.221 43.0415 13.276C43.1759 13.331 43.3199 13.3586 43.4651 13.3574C43.6104 13.3561 43.7539 13.326 43.8873 13.2686C44.0208 13.2113 44.1414 13.128 44.2423 13.0235L47.3366 9.9293C47.441 9.8284 47.5244 9.70772 47.5817 9.57427C47.639 9.44083 47.6692 9.29731 47.6704 9.15208C47.6717 9.00685 47.644 8.86283 47.589 8.72841C47.534 8.59399 47.4528 8.47188 47.3501 8.36918C47.2474 8.26648 47.1253 8.18527 46.9909 8.13028C46.8565 8.07528 46.7124 8.04761 46.5672 8.04887C46.422 8.05013 46.2785 8.0803 46.145 8.13763C46.0116 8.19495 45.8909 8.27827 45.79 8.38274ZM44.2434 42.4126C44.0384 42.2073 43.7601 42.092 43.47 42.0919C43.1799 42.0918 42.9016 42.2069 42.6963 42.412C42.4911 42.6171 42.3757 42.8953 42.3756 43.1855C42.3755 43.4756 42.4907 43.7539 42.6958 43.9591L45.79 47.0534C45.9963 47.2526 46.2726 47.3628 46.5593 47.3604C46.8461 47.3579 47.1204 47.2428 47.3232 47.04C47.526 46.8372 47.6411 46.5629 47.6436 46.2761C47.646 45.9894 47.5358 45.7131 47.3366 45.5068L44.2434 42.4126ZM54.2513 26.6243H49.8763C49.5862 26.6243 49.308 26.7395 49.1029 26.9447C48.8977 27.1498 48.7825 27.428 48.7825 27.718C48.7825 28.0081 48.8977 28.2863 49.1029 28.4914C49.308 28.6966 49.5862 28.8118 49.8763 28.8118H54.2513C54.5413 28.8118 54.8195 28.6966 55.0247 28.4914C55.2298 28.2863 55.345 28.0081 55.345 27.718C55.345 27.428 55.2298 27.1498 55.0247 26.9447C54.8195 26.7395 54.5413 26.6243 54.2513 26.6243Z" fill="#F97E27"/>
</svg>
