<svg width="12" height="16" viewBox="0 0 12 16" fill="none" xmlns="http://www.w3.org/2000/svg">
<path d="M11.0312 1.00781V1.00781C11.5663 1.00781 12 1.44154 12 1.97656V14.5C12 15.3284 11.3284 16 10.5 16H1.5C0.671573 16 0 15.3284 0 14.5V1.99219C0 1.44853 0.44072 1.00781 0.984375 1.00781V1.00781V0.5C0.984375 0.223858 1.20823 0 1.48438 0V0C1.76052 0 1.98438 0.223858 1.98438 0.5V1.00781H4V0.5C4 0.223858 4.22386 0 4.5 0V0C4.77614 0 5 0.223858 5 0.5V1.00781H7.01562V0.5C7.01562 0.223858 7.23948 0 7.51562 0V0C7.79177 0 8.01562 0.223858 8.01562 0.5V1.00781H10.0312V0.5C10.0312 0.223858 10.2551 0 10.5312 0V0C10.8074 0 11.0312 0.223858 11.0312 0.5V1.00781ZM10.5 15C10.7761 15 11 14.7761 11 14.5V2.50781C11 2.23167 10.7761 2.00781 10.5 2.00781H1.5C1.22386 2.00781 1 2.23167 1 2.50781V14.5C1 14.7761 1.22386 15 1.5 15H10.5ZM8.5 4.00781C8.77614 4.00781 9 4.23167 9 4.50781V4.50781C9 4.78395 8.77614 5.00781 8.5 5.00781H3.5C3.22386 5.00781 3 4.78395 3 4.50781V4.50781C3 4.23167 3.22386 4.00781 3.5 4.00781H8.5ZM3.5 13.0156C3.22386 13.0156 3 12.7918 3 12.5156V12.5156C3 12.2395 3.22386 12.0156 3.5 12.0156H8.5C8.77614 12.0156 9 12.2395 9 12.5156V12.5156C9 12.7918 8.77614 13.0156 8.5 13.0156H3.5ZM3.5 9.00781C3.22386 9.00781 3 8.78395 3 8.50781V8.50781C3 8.23167 3.22386 8.00781 3.5 8.00781H8.5C8.77614 8.00781 9 8.23167 9 8.50781V8.50781C9 8.78395 8.77614 9.00781 8.5 9.00781H3.5Z" fill="#434343"/>
</svg>
