<svg width="11" height="11" viewBox="0 0 11 11" fill="none" xmlns="http://www.w3.org/2000/svg">
<path d="M5.37394 3.04513e-07C4.44192 -0.000313464 3.52585 0.241857 2.71575 0.702718C1.90564 1.16358 1.22938 1.82727 0.753393 2.62858C0.277411 3.4299 0.0180903 4.34126 0.000912697 5.27312C-0.0162649 6.20498 0.209291 7.12528 0.655418 7.94359L0.0197158 10.173C-0.00265259 10.2513 -0.00324852 10.3342 0.0179923 10.4128C0.039233 10.4914 0.0815062 10.5627 0.140262 10.6191C0.199018 10.6754 0.272032 10.7147 0.351445 10.7327C0.430859 10.7506 0.513665 10.7466 0.590952 10.721L2.68429 10.0235C3.39776 10.4358 4.19652 10.6784 5.01876 10.7326C5.84101 10.7868 6.6647 10.6512 7.42612 10.3361C8.18754 10.021 8.86628 9.53503 9.40983 8.91569C9.95338 8.29635 10.3472 7.56028 10.5607 6.7644C10.7743 5.96853 10.8019 5.13419 10.6414 4.32594C10.4809 3.51769 10.1367 2.75718 9.63527 2.10326C9.13386 1.44934 8.48874 0.919533 7.74981 0.554822C7.01089 0.190112 6.19797 0.000275724 5.37394 3.04513e-07ZM3.58323 4.47677C3.58323 4.35804 3.63039 4.24417 3.71435 4.16022C3.79831 4.07626 3.91217 4.0291 4.03091 4.0291H6.71697C6.8357 4.0291 6.94957 4.07626 7.03353 4.16022C7.11748 4.24417 7.16465 4.35804 7.16465 4.47677C7.16465 4.59551 7.11748 4.70937 7.03353 4.79333C6.94957 4.87729 6.8357 4.92445 6.71697 4.92445H4.03091C3.91217 4.92445 3.79831 4.87729 3.71435 4.79333C3.63039 4.70937 3.58323 4.59551 3.58323 4.47677ZM4.03091 5.81981H5.82162C5.94035 5.81981 6.05422 5.86697 6.13817 5.95093C6.22213 6.03488 6.26929 6.14875 6.26929 6.26748C6.26929 6.38622 6.22213 6.50008 6.13817 6.58404C6.05422 6.668 5.94035 6.71516 5.82162 6.71516H4.03091C3.91217 6.71516 3.79831 6.668 3.71435 6.58404C3.63039 6.50008 3.58323 6.38622 3.58323 6.26748C3.58323 6.14875 3.63039 6.03488 3.71435 5.95093C3.79831 5.86697 3.91217 5.81981 4.03091 5.81981Z" fill="#F97E27"/>
</svg>
