<svg width="40" height="41" viewBox="0 0 40 41" fill="none" xmlns="http://www.w3.org/2000/svg">
<rect x="1" y="1.85059" width="38" height="38" rx="19" fill="#ABB7C2" fill-opacity="0.1"/>
<rect x="1" y="1.85059" width="38" height="38" rx="19" stroke="#CFD6DC" stroke-width="2"/>
<path fill-rule="evenodd" clip-rule="evenodd" d="M24.5 19.1631C24.9476 19.1631 25.3768 18.9853 25.6932 18.6688C26.0097 18.3524 26.1875 17.9231 26.1875 17.4756C26.1875 17.028 26.0097 16.5988 25.6932 16.2823C25.3768 15.9659 24.9476 15.7881 24.5 15.7881C24.0524 15.7881 23.6232 15.9659 23.3068 16.2823C22.9903 16.5988 22.8125 17.028 22.8125 17.4756C22.8125 17.9231 22.9903 18.3524 23.3068 18.6688C23.6232 18.9853 24.0524 19.1631 24.5 19.1631ZM24.5 20.8506C25.1312 20.8505 25.7498 20.6735 26.2854 20.3395C26.8211 20.0055 27.2523 19.528 27.5301 18.9612C27.808 18.3944 27.9213 17.7611 27.8573 17.1331C27.7932 16.5051 27.5544 15.9077 27.1678 15.4087C26.7812 14.9097 26.2625 14.5291 25.6704 14.3101C25.0784 14.0912 24.4368 14.0426 23.8186 14.17C23.2003 14.2974 22.6302 14.5956 22.173 15.0308C21.7157 15.466 21.3897 16.0207 21.2319 16.6318H12.9688C12.745 16.6318 12.5304 16.7207 12.3721 16.879C12.2139 17.0372 12.125 17.2518 12.125 17.4756C12.125 17.6994 12.2139 17.914 12.3721 18.0722C12.5304 18.2304 12.745 18.3193 12.9688 18.3193H21.2319C21.4189 19.0438 21.8415 19.6857 22.4331 20.1438C23.0246 20.602 23.7517 20.8507 24.5 20.8506ZM17.1875 24.2256C17.1875 24.6731 17.0097 25.1024 16.6932 25.4188C16.3768 25.7353 15.9476 25.9131 15.5 25.9131C15.0524 25.9131 14.6232 25.7353 14.3068 25.4188C13.9903 25.1024 13.8125 24.6731 13.8125 24.2256C13.8125 23.778 13.9903 23.3488 14.3068 23.0323C14.6232 22.7159 15.0524 22.5381 15.5 22.5381C15.9476 22.5381 16.3768 22.7159 16.6932 23.0323C17.0097 23.3488 17.1875 23.778 17.1875 24.2256ZM18.7681 25.0693C18.5612 25.8632 18.0723 26.5546 17.3928 27.0143C16.7133 27.474 15.8896 27.6705 15.0757 27.5672C14.2619 27.4638 13.5135 27.0676 12.9704 26.4526C12.4274 25.8377 12.1269 25.046 12.125 24.2256C12.1247 23.4039 12.4242 22.6104 12.9672 21.9938C13.5103 21.3772 14.2596 20.9799 15.0748 20.8763C15.8899 20.7728 16.7147 20.9702 17.3947 21.4315C18.0747 21.8927 18.563 22.5862 18.7681 23.3818H27.0312C27.255 23.3818 27.4696 23.4707 27.6279 23.629C27.7861 23.7872 27.875 24.0018 27.875 24.2256C27.875 24.4494 27.7861 24.664 27.6279 24.8222C27.4696 24.9804 27.255 25.0693 27.0312 25.0693H18.7681Z" fill="#ABB7C2"/>
</svg>
