<svg width="15" height="16" viewBox="0 0 15 16" fill="none" xmlns="http://www.w3.org/2000/svg">
<path d="M6.92887 15C4.13453 15 2.73666 15 1.86798 14.1796C1 13.3599 1 12.0397 1 9.4V6.6C1 3.9603 1 2.6401 1.86798 1.8204C2.73666 1 4.13453 1 6.92887 1H7.67085C10.4659 1 11.8631 1 12.7317 1.8204C13.5997 2.6401 13.5997 3.9603 13.5997 6.6M6.94987 15H7.99984M4.49992 4.5H10.0998M4.49992 8H7.99984" stroke="#434343" stroke-width="1.04999" stroke-linecap="round" stroke-linejoin="round"/>
<path d="M11.1515 12.6103L10.5202 14.8174C10.5138 14.8424 10.5145 14.8687 10.5221 14.8934C10.5298 14.918 10.5441 14.9401 10.5635 14.9571C10.583 14.9741 10.6067 14.9855 10.6322 14.9898C10.6576 14.9942 10.6838 14.9914 10.7077 14.9819L12.0972 14.4268C12.1642 14.3999 12.2389 14.3999 12.3058 14.4268L13.7086 14.9868C13.7321 14.9961 13.7576 14.999 13.7826 14.995C13.8075 14.991 13.8309 14.9803 13.8503 14.9641C13.8697 14.9479 13.8843 14.9267 13.8926 14.9028C13.901 14.879 13.9027 14.8533 13.8976 14.8286L13.3628 12.541M14.3015 10.7938C14.3005 10.2374 14.0789 9.70417 13.6852 9.3111C13.2915 8.91803 12.7579 8.69726 12.2015 8.69727C11.0416 8.69727 10.1016 9.63597 10.1016 10.7938C10.1017 11.0693 10.1562 11.3421 10.2619 11.5967C10.3675 11.8512 10.5222 12.0824 10.7172 12.277C10.9123 12.4717 11.1437 12.6261 11.3984 12.7313C11.6531 12.8365 11.926 12.8905 12.2015 12.8903C13.3614 12.8903 14.3015 11.9523 14.3015 10.7938Z" stroke="#434343" stroke-width="1.04999" stroke-linecap="round" stroke-linejoin="round"/>
</svg>
