<svg width="16" height="16" viewBox="0 0 16 16" fill="none" xmlns="http://www.w3.org/2000/svg">
<path d="M16 3.94467L13.8 5.21733L14.684 7.90333L14.184 8.252L12.01 6.57133L9.82667 8.25933L9.346 7.89733L10.2153 5.18L8 3.948V3.33333H10.9L11.6853 0.333333H12.332L13.116 3.33333H16V3.94467ZM3.33333 3.33333V4.66667H6.66667V3.33333H3.33333ZM8 6H3.33333V7.33333H8V6ZM3.33333 10H8V8.66667H3.33333V10ZM12.6667 12H14.6667V14C14.6667 15.1027 13.7693 16 12.6667 16H2.33333C1.04667 16 0 14.9533 0 13.6667V2C0 0.897333 0.897333 0 2 0H9.42C8.81 0.338 8.276 0.792667 7.84267 1.33333H2C1.63267 1.33333 1.33333 1.632 1.33333 2V13.6667C1.33333 14.218 1.782 14.6667 2.33333 14.6667C2.88467 14.6667 3.33333 14.218 3.33333 13.6667V12H11.3333V9.95533C11.5513 9.984 11.774 10 12 10C12.226 10 12.448 9.98133 12.6667 9.954V12ZM13.3333 13.3333H4.66667V13.6667C4.66667 14.024 4.58533 14.3633 4.44133 14.6667H12.6667C13.034 14.6667 13.3333 14.368 13.3333 14V13.3333Z" fill="#434343"/>
</svg>
