<svg width="14" height="14" viewBox="0 0 14 14" fill="none" xmlns="http://www.w3.org/2000/svg">
<path fill-rule="evenodd" clip-rule="evenodd" d="M10.438 0.591184C10.2991 0.369197 10.0944 0.196048 9.85248 0.0958387C9.61054 -0.00437034 9.34337 -0.0266534 9.08816 0.0320921L7.27691 0.448137C7.09129 0.4908 6.8984 0.4908 6.71278 0.448137L4.90153 0.0320921C4.64632 -0.0266534 4.37915 -0.00437034 4.13721 0.0958387C3.89526 0.196048 3.69058 0.369197 3.55165 0.591184L2.56442 2.16671C2.46369 2.32789 2.32769 2.46389 2.16651 2.56563L0.590981 3.55286C0.369378 3.69166 0.196482 3.89602 0.0962949 4.13755C-0.00389253 4.37908 -0.0264024 4.64581 0.0318897 4.90072L0.447934 6.71399C0.490444 6.89929 0.490444 7.09181 0.447934 7.27711L0.0318897 9.08937C-0.026629 9.34443 -0.00423236 9.61138 0.0959658 9.85312C0.196164 10.0949 0.369186 10.2994 0.590981 10.4382L2.16651 11.4255C2.32769 11.5262 2.46369 11.6622 2.56543 11.8234L3.55266 13.3989C3.83673 13.8532 4.3787 14.0779 4.90153 13.958L6.71278 13.542C6.8984 13.4993 7.09129 13.4993 7.27691 13.542L9.08917 13.958C9.34423 14.0165 9.61118 13.9941 9.85292 13.8939C10.0947 13.7937 10.2992 13.6207 10.438 13.3989L11.4253 11.8234C11.526 11.6622 11.662 11.5262 11.8232 11.4255L13.3997 10.4382C13.6215 10.2992 13.7945 10.0944 13.8945 9.8525C13.9945 9.61056 14.0166 9.34346 13.9578 9.08837L13.5428 7.27711C13.5001 7.09149 13.5001 6.89861 13.5428 6.71298L13.9588 4.90072C14.0174 4.64577 13.9952 4.37889 13.8952 4.13717C13.7952 3.89544 13.6223 3.69086 13.4007 3.55185L11.8242 2.56463C11.6632 2.4637 11.5272 2.32767 11.4263 2.16671L10.438 0.591184ZM9.93134 4.74861C9.99364 4.63404 10.0091 4.49976 9.9744 4.37404C9.93972 4.24832 9.85763 4.14095 9.74539 4.07452C9.63316 4.00809 9.49954 3.98779 9.37264 4.01788C9.24574 4.04797 9.13545 4.12611 9.065 4.23586L6.43072 8.69448L4.84008 7.17134C4.79289 7.12288 4.73642 7.08443 4.67405 7.05827C4.61168 7.03211 4.54468 7.01878 4.47705 7.01908C4.40941 7.01937 4.34253 7.03329 4.28039 7.05999C4.21825 7.08669 4.16212 7.12563 4.11536 7.1745C4.06859 7.22336 4.03215 7.28114 4.00819 7.34439C3.98424 7.40765 3.97328 7.47507 3.97595 7.54266C3.97862 7.61024 3.99488 7.67659 4.02374 7.73775C4.05261 7.79892 4.09351 7.85364 4.14398 7.89866L6.19298 9.86203C6.24782 9.91446 6.3138 9.95383 6.38598 9.9772C6.45817 10.0006 6.53471 10.0073 6.60987 9.99695C6.68504 9.98658 6.75689 9.95937 6.82006 9.91734C6.88323 9.87532 6.93609 9.81956 6.9747 9.75424L9.93134 4.74861Z" fill="white"/>
</svg>
