<svg width="70" height="70" viewBox="0 0 70 70" fill="none" xmlns="http://www.w3.org/2000/svg">
<g clip-path="url(#clip0_2050_5162)">
<path d="M24.3633 16.1845C19.8535 16.1845 16.1845 19.8535 16.1845 24.3633C16.1845 28.8731 19.8535 32.5421 24.3633 32.5421C28.8731 32.5421 32.5421 28.8731 32.5421 24.3633C32.5421 19.8535 28.8732 16.1845 24.3633 16.1845ZM24.3633 29.8078C21.3612 29.8078 18.9189 27.3655 18.9189 24.3634C18.9189 21.3613 21.3612 18.919 24.3633 18.919C27.3654 18.919 29.8077 21.3613 29.8077 24.3634C29.8077 27.3655 27.3654 29.8078 24.3633 29.8078ZM39.5559 28.4246C40.8987 28.4246 41.9912 27.3321 41.9912 25.9893V22.7373C41.9912 21.3944 40.8989 20.3019 39.5559 20.3019C38.6241 20.3019 37.8544 19.7865 37.4966 18.9232C37.1391 18.06 37.3189 17.1512 37.9777 16.4925C38.4378 16.0326 38.6913 15.4209 38.6913 14.7703C38.6913 14.1196 38.4378 13.5081 37.9779 13.0483L35.6784 10.7487C34.7288 9.79904 33.1836 9.79918 32.2342 10.7487C31.5752 11.4075 30.666 11.5872 29.8033 11.2298C28.9401 10.8723 28.4246 10.1024 28.4246 9.17068C28.4246 7.82783 27.3323 6.73531 25.9893 6.73531H22.7373C21.3944 6.73531 20.3019 7.82783 20.3019 9.17068C20.3019 10.1024 19.7865 10.8723 18.9232 11.2298C18.0601 11.5873 17.1512 11.4077 16.4924 10.7486C15.5427 9.79891 13.9975 9.79904 13.0482 10.7486L10.7486 13.0483C9.79904 13.9978 9.79904 15.543 10.7486 16.4925C11.4074 17.1514 11.5873 18.0601 11.2298 18.9234C10.8721 19.7866 10.1024 20.3021 9.17068 20.3021C7.82783 20.3021 6.73531 21.3946 6.73531 22.7374V25.9894C6.73531 27.3323 7.8277 28.4248 9.17068 28.4248C10.1023 28.4248 10.872 28.9402 11.2298 29.8035C11.5873 30.6668 11.4075 31.5755 10.7486 32.2343C10.5217 32.46 10.3419 32.7283 10.2194 33.0239C10.097 33.3195 10.0344 33.6365 10.0353 33.9564C10.0353 34.6071 10.2888 35.2188 10.7486 35.6784L13.048 37.9781C13.9977 38.9278 15.5429 38.9277 16.4922 37.9781C17.1523 37.3181 18.0615 37.1372 18.9242 37.4944C19.7869 37.8517 20.3018 38.6224 20.3018 39.5562C20.3018 40.899 21.3942 41.9914 22.7371 41.9914H25.9891C27.332 41.9914 28.4245 40.899 28.4245 39.5562C28.4245 38.6244 28.9399 37.8546 29.8032 37.497C30.6667 37.1398 31.5752 37.3193 32.234 37.9783C33.1837 38.9279 34.7289 38.9278 35.6783 37.9783L37.9773 35.6789C38.2043 35.4533 38.3843 35.1849 38.5068 34.8893C38.6293 34.5936 38.692 34.2766 38.6911 33.9566C38.6911 33.3059 38.4377 32.6942 37.9777 32.2345C37.3189 31.5756 37.139 30.667 37.4965 29.8036C37.8544 28.9401 38.6241 28.4246 39.5559 28.4246ZM34.9705 28.757C34.2255 30.5557 34.561 32.5187 35.8389 33.9504L33.9504 35.8392C32.5187 34.5611 30.5561 34.2255 28.757 34.9707C26.9583 35.7157 25.8076 37.341 25.6988 39.257H23.0281C22.9195 37.3393 21.769 35.7131 19.9709 34.9683C18.1727 34.2233 16.2092 34.56 14.7764 35.8393L12.8879 33.9505C14.166 32.519 14.5013 30.556 13.7564 28.7571C13.0114 26.9585 11.3859 25.8076 9.4701 25.6989V23.0282C11.3859 22.9195 13.0112 21.7686 13.7564 19.97C14.5013 18.1712 14.166 16.2081 12.8879 14.7766L14.7764 12.8879C16.208 14.166 18.1707 14.5015 19.9698 13.7564C21.7685 13.0114 22.9193 11.3861 23.0281 9.4701H25.6988C25.8076 11.3861 26.9583 13.0114 28.757 13.7564C30.5562 14.5016 32.519 14.166 33.9504 12.8879L35.8389 14.7766C34.5609 16.2083 34.2255 18.1712 34.9705 19.97C35.7154 21.7686 37.3409 22.9195 39.2569 23.0282V25.6989C37.3409 25.8074 35.7154 26.9583 34.9705 28.757ZM68.7393 59.1622L52.7814 43.2044C51.6444 42.0675 50.0262 41.6998 48.5767 42.0988L44.5164 38.0386C47.1723 34.1369 48.7266 29.4284 48.7266 24.3633C48.7266 10.9293 37.7973 0 24.3633 0C10.9293 0 0 10.9293 0 24.3633C0 37.7973 10.9293 48.7267 24.3633 48.7267C29.4284 48.7267 34.137 47.1723 38.0384 44.5166L42.0987 48.577C41.6998 50.0265 42.0674 51.6447 43.2042 52.7816L59.162 68.7395C59.975 69.5524 61.059 70.0001 62.2143 70.0001C63.3696 70.0001 64.4536 69.5524 65.2665 68.7395L68.7392 65.2669C70.4223 63.5837 70.4223 60.8452 68.7393 59.1622ZM2.73438 24.3633C2.73438 12.4372 12.4372 2.73438 24.3633 2.73438C36.2894 2.73438 45.9922 12.437 45.9922 24.3633C45.9922 36.2895 36.2894 45.9923 24.3633 45.9923C12.4372 45.9923 2.73438 36.2895 2.73438 24.3633ZM42.8385 40.2274L46.2461 43.6352L43.635 46.2462L40.2274 42.8385C41.162 42.0348 42.0348 41.162 42.8385 40.2274ZM66.8058 63.333L63.3332 66.8057C63.0366 67.1022 62.6393 67.2655 62.2144 67.2655C61.7895 67.2655 61.3922 67.1022 61.0956 66.8057L45.1378 50.848C44.521 50.231 44.521 49.2274 45.1378 48.6105L48.6103 45.1378C48.9188 44.8294 49.3239 44.6752 49.7291 44.6752C50.1344 44.6752 50.5395 44.8294 50.8479 45.1378L66.8058 61.0956C67.1024 61.3921 67.2656 61.7895 67.2656 62.2144C67.2656 62.6393 67.1024 63.0366 66.8058 63.333Z" fill="#F97E27"/>
</g>
<defs>
<clipPath id="clip0_2050_5162">
<rect width="70" height="70" fill="white"/>
</clipPath>
</defs>
</svg>
