<svg width="40" height="41" viewBox="0 0 40 41" fill="none" xmlns="http://www.w3.org/2000/svg">
<rect x="0.5" y="1.35059" width="39" height="39" rx="19.5" fill="#F97E27"/>
<rect x="0.5" y="1.35059" width="39" height="39" rx="19.5" stroke="white"/>
<path fill-rule="evenodd" clip-rule="evenodd" d="M17 15.1006C15.4812 15.1006 14.25 16.3318 14.25 17.8506C14.25 19.3694 15.4812 20.6006 17 20.6006C18.5188 20.6006 19.75 19.3694 19.75 17.8506C19.75 16.3318 18.5188 15.1006 17 15.1006ZM15.75 17.8506C15.75 17.1602 16.3096 16.6006 17 16.6006C17.6904 16.6006 18.25 17.1602 18.25 17.8506C18.25 18.5409 17.6904 19.1006 17 19.1006C16.3096 19.1006 15.75 18.5409 15.75 17.8506Z" fill="white"/>
<path fill-rule="evenodd" clip-rule="evenodd" d="M17 21.1006C15.8042 21.1006 14.6846 21.3413 13.8362 21.7656C13.0326 22.1673 12.25 22.8612 12.25 23.8506L12.2499 23.9131C12.2483 24.4234 12.2458 25.2828 13.0602 25.8723C13.4382 26.1459 13.9369 26.3204 14.5547 26.4316C15.1782 26.5437 15.9772 26.6006 17 26.6006C18.0228 26.6006 18.8218 26.5437 19.4453 26.4316C20.0631 26.3204 20.5618 26.1459 20.9398 25.8723C21.7542 25.2828 21.7517 24.4234 21.7501 23.9131L21.75 23.8506C21.75 22.8612 20.9674 22.1673 20.1638 21.7656C19.3154 21.3413 18.1958 21.1006 17 21.1006ZM13.75 23.8506C13.75 23.7354 13.8629 23.4293 14.507 23.1072C15.1063 22.8076 15.9866 22.6006 17 22.6006C18.0134 22.6006 18.8937 22.8076 19.493 23.1072C20.1371 23.4293 20.25 23.7354 20.25 23.8506C20.25 24.4551 20.2115 24.5478 20.0602 24.6573C19.9382 24.7456 19.6869 24.864 19.1797 24.9553C18.6782 25.0455 17.9772 25.1006 17 25.1006C16.0228 25.1006 15.3218 25.0455 14.8203 24.9553C14.3131 24.864 14.0618 24.7456 13.9398 24.6573C13.7885 24.5478 13.75 24.4551 13.75 23.8506Z" fill="white"/>
<path d="M27 21.6006C27.4142 21.6006 27.75 21.2648 27.75 20.8506C27.75 20.4364 27.4142 20.1006 27 20.1006H23C22.5858 20.1006 22.25 20.4364 22.25 20.8506C22.25 21.2648 22.5858 21.6006 23 21.6006H27Z" fill="white"/>
<path d="M27.75 17.8506C27.75 18.2648 27.4142 18.6006 27 18.6006H22C21.5858 18.6006 21.25 18.2648 21.25 17.8506C21.25 17.4364 21.5858 17.1006 22 17.1006H27C27.4142 17.1006 27.75 17.4364 27.75 17.8506Z" fill="white"/>
<path d="M27 24.6006C27.4142 24.6006 27.75 24.2648 27.75 23.8506C27.75 23.4364 27.4142 23.1006 27 23.1006H24C23.5858 23.1006 23.25 23.4364 23.25 23.8506C23.25 24.2648 23.5858 24.6006 24 24.6006H27Z" fill="white"/>
<path fill-rule="evenodd" clip-rule="evenodd" d="M17.9436 12.1006H22.0564C23.8942 12.1006 25.3498 12.1006 26.489 12.2537C27.6614 12.4113 28.6104 12.7435 29.3588 13.4918C30.1071 14.2402 30.4392 15.1891 30.5969 16.3616C30.75 17.5008 30.75 18.9564 30.75 20.7941V20.907C30.75 22.7447 30.75 24.2004 30.5969 25.3396C30.4392 26.512 30.1071 27.461 29.3588 28.2093C28.6104 28.9577 27.6614 29.2898 26.489 29.4475C25.3498 29.6006 23.8942 29.6006 22.0565 29.6006H17.9436C16.1058 29.6006 14.6502 29.6006 13.511 29.4475C12.3386 29.2898 11.3896 28.9577 10.6412 28.2093C9.89288 27.461 9.56076 26.512 9.40314 25.3396C9.24997 24.2004 9.24998 22.7448 9.25 20.907V20.7942C9.24998 18.9564 9.24997 17.5008 9.40314 16.3616C9.56076 15.1891 9.89288 14.2402 10.6412 13.4918C11.3896 12.7435 12.3386 12.4113 13.511 12.2537C14.6502 12.1006 16.1058 12.1006 17.9436 12.1006ZM13.7108 13.7403C12.7048 13.8756 12.1251 14.1293 11.7019 14.5525C11.2787 14.9757 11.025 15.5553 10.8898 16.5614C10.7516 17.5891 10.75 18.9438 10.75 20.8506C10.75 22.7574 10.7516 24.1121 10.8898 25.1397C11.025 26.1458 11.2787 26.7255 11.7019 27.1487C12.1251 27.5719 12.7048 27.8256 13.7108 27.9608C14.7385 28.099 16.0932 28.1006 18 28.1006H22C23.9068 28.1006 25.2615 28.099 26.2892 27.9608C27.2952 27.8256 27.8749 27.5719 28.2981 27.1487C28.7213 26.7255 28.975 26.1458 29.1102 25.1397C29.2484 24.1121 29.25 22.7574 29.25 20.8506C29.25 18.9438 29.2484 17.5891 29.1102 16.5614C28.975 15.5553 28.7213 14.9757 28.2981 14.5525C27.8749 14.1293 27.2952 13.8756 26.2892 13.7403C25.2615 13.6022 23.9068 13.6006 22 13.6006H18C16.0932 13.6006 14.7385 13.6022 13.7108 13.7403Z" fill="white"/>
</svg>
