<svg width="15" height="14" viewBox="0 0 15 14" fill="none" xmlns="http://www.w3.org/2000/svg">
<path d="M8.83574 9.57205H5.89049V8.09943H0V12.5173C0 12.9079 0.155151 13.2824 0.431321 13.5586C0.707492 13.8348 1.08206 13.9899 1.47262 13.9899H13.2536C13.6442 13.9899 14.0187 13.8348 14.2949 13.5586C14.5711 13.2824 14.7262 12.9079 14.7262 12.5173V8.09943H8.83574V9.57205ZM13.2536 2.94525H11.781V1.47262C11.781 1.08206 11.6258 0.707492 11.3497 0.431321C11.0735 0.155151 10.6989 0 10.3084 0H4.41787C4.02731 0 3.65274 0.155151 3.37657 0.431321C3.1004 0.707492 2.94525 1.08206 2.94525 1.47262V2.94525H1.47262C1.08206 2.94525 0.707492 3.1004 0.431321 3.37657C0.155151 3.65274 0 4.02731 0 4.41787V7.36312H14.7262V4.41787C14.7262 4.02731 14.5711 3.65274 14.2949 3.37657C14.0187 3.1004 13.6442 2.94525 13.2536 2.94525ZM10.3084 2.94525H4.41787V1.47262H10.3084V2.94525Z" fill="#777777"/>
</svg>
