<svg width="10" height="10" viewBox="0 0 10 10" fill="none" xmlns="http://www.w3.org/2000/svg">
<path d="M7.23583 3.90917C7.23458 2.68 7.21625 2.04333 6.85833 1.6075C6.78926 1.52321 6.71208 1.44589 6.62792 1.37667C6.1675 1 5.48417 1 4.1175 1C2.75083 1 2.0675 1 1.6075 1.37708C1.52333 1.44631 1.44616 1.52362 1.37708 1.60792C1 2.06667 1 2.75 1 4.11667C1 5.48333 1 6.16667 1.3775 6.62625C1.44694 6.71069 1.52375 6.7875 1.60792 6.85667C2.04417 7.215 2.68083 7.23333 3.91 7.23417" stroke="#949494" stroke-width="0.625" stroke-linecap="round" stroke-linejoin="round"/>
<path d="M6.01266 3.92807L7.24849 3.91016M6.00682 9.33516L7.24266 9.31724M9.32266 6.01016L9.31099 7.24349M3.92182 6.01599L3.91016 7.24932M4.95391 3.92807C4.60724 3.99016 4.04974 4.05391 3.92182 4.77141M8.29057 9.31724C8.63849 9.26016 9.19641 9.20474 9.33557 8.48974M8.29057 3.92807C8.63724 3.99016 9.19474 4.05391 9.32266 4.77141M4.95932 9.31641C4.61224 9.25474 4.05516 9.19099 3.92682 8.47349" stroke="#949494" stroke-width="0.625" stroke-linecap="round" stroke-linejoin="round"/>
</svg>
