<svg width="16" height="18" viewBox="0 0 16 18" fill="none" xmlns="http://www.w3.org/2000/svg">
<path d="M1.84211 17V12.7895L1 11.9474V8.57895C1 8.35561 1.08872 8.14141 1.24665 7.98349C1.40457 7.82556 1.61877 7.73684 1.84211 7.73684H5.21053C5.43387 7.73684 5.64806 7.82556 5.80598 7.98349C5.96391 8.14141 6.05263 8.35561 6.05263 8.57895V11.9474L5.21053 12.7895V17M10.2632 17V13.6316H8.57895L10.2632 8.57895C10.2632 8.35561 10.3519 8.14141 10.5098 7.98349C10.6677 7.82556 10.8819 7.73684 11.1053 7.73684H12.7895C13.0128 7.73684 13.227 7.82556 13.3849 7.98349C13.5429 8.14141 13.6316 8.35561 13.6316 8.57895L15.3158 13.6316H13.6316V17M1.84211 2.68421C1.84211 3.13089 2.01955 3.55928 2.3354 3.87513C2.65125 4.19098 3.07964 4.36842 3.52632 4.36842C3.973 4.36842 4.40138 4.19098 4.71723 3.87513C5.03308 3.55928 5.21053 3.13089 5.21053 2.68421C5.21053 2.23753 5.03308 1.80914 4.71723 1.49329C4.40138 1.17744 3.973 1 3.52632 1C3.07964 1 2.65125 1.17744 2.3354 1.49329C2.01955 1.80914 1.84211 2.23753 1.84211 2.68421ZM10.2632 2.68421C10.2632 3.13089 10.4406 3.55928 10.7565 3.87513C11.0723 4.19098 11.5007 4.36842 11.9474 4.36842C12.394 4.36842 12.8224 4.19098 13.1383 3.87513C13.4541 3.55928 13.6316 3.13089 13.6316 2.68421C13.6316 2.23753 13.4541 1.80914 13.1383 1.49329C12.8224 1.17744 12.394 1 11.9474 1C11.5007 1 11.0723 1.17744 10.7565 1.49329C10.4406 1.80914 10.2632 2.23753 10.2632 2.68421Z" stroke="#434343" stroke-width="1.26316" stroke-linecap="round" stroke-linejoin="round"/>
</svg>
