<svg width="70" height="70" viewBox="0 0 70 70" fill="none" xmlns="http://www.w3.org/2000/svg">
<path d="M45.0069 44.738C41.2602 44.8164 37.9432 41.4991 38.0216 37.7527C38.0216 37.3254 37.8519 36.9156 37.5498 36.6135C37.2476 36.3113 36.8379 36.1416 36.4106 36.1416C32.7223 36.6957 36.0501 43.5203 37.792 44.9672C39.241 46.7126 46.0615 50.0352 46.618 46.349C46.618 45.9217 46.4482 45.5119 46.1461 45.2098C45.844 44.9077 45.4342 44.738 45.0069 44.738Z" fill="#F97E27"/>
<path d="M46.1031 21.136C36.0746 20.4892 27.7701 28.78 28.3879 38.8016C28.8236 50.0215 41.4534 57.711 51.5894 53.0448L59.4539 60.9142C62.7439 64.3593 68.9634 62.5515 69.8489 57.7905C70.5737 54.7448 68.5469 52.334 66.4518 50.486C64.8603 48.9512 62.7183 51.4002 64.1761 52.769C64.3378 52.9349 65.9051 54.4907 65.9348 54.5341C68.6102 57.556 64.2131 61.2107 61.7271 58.6312L56.2884 53.1925C55.0771 51.8461 54.1412 51.4635 54.8258 51.1881C67.2305 42.3464 61.556 22.0747 46.1031 21.136ZM58.4329 37.754C57.869 55.4994 32.1385 55.4955 31.5774 37.7533C32.1395 20.009 57.8774 20.0101 58.4329 37.754Z" fill="#F97E27"/>
<path d="M29.1669 60.5004C28.8172 60.5004 28.477 60.3866 28.1977 60.1763C27.9184 59.9659 27.7151 59.6703 27.6185 59.3342C26.8702 56.7288 22.849 54.0387 18.592 51.1908C10.3082 45.6492 0 38.7528 0 25.5599C0 13.7572 7.7966 8.46803 14.4732 7.52513C20.5909 6.66133 26.2461 9.11763 29.1616 13.5696C36.548 3.15642 54.7459 5.74083 57.9152 21.1093C57.9598 21.3182 57.9625 21.534 57.923 21.7439C57.8835 21.9539 57.8026 22.1539 57.6851 22.3323C57.5676 22.5107 57.4157 22.6639 57.2384 22.7831C57.0611 22.9023 56.8619 22.985 56.6523 23.0264C56.4427 23.0679 56.227 23.0672 56.0177 23.0245C55.8084 22.9818 55.6096 22.8979 55.433 22.7777C55.2564 22.6575 55.1055 22.5033 54.9891 22.3242C54.8726 22.1451 54.7929 21.9446 54.7547 21.7344C52.3397 8.81523 34.8292 6.39848 30.7146 17.8494C30.3292 19.3775 28.0046 19.3688 27.6189 17.8494C25.921 11.9561 19.8478 10.0199 14.924 10.7154C9.5256 11.4777 3.22175 15.8229 3.22175 25.5599C3.22175 37.0319 12.3392 43.1313 20.3833 48.5129C23.9918 50.9269 27.2429 53.1018 29.1634 55.5441C29.926 54.5753 30.9501 53.5865 32.2794 52.5229C33.9279 51.2058 35.931 53.7234 34.2919 55.0387C32.2164 56.6991 31.0804 58.0641 30.7153 59.3339C30.6187 59.67 30.4154 59.9655 30.1361 60.1759C29.8568 60.3863 29.5166 60.5001 29.1669 60.5001V60.5004ZM63.0339 47.0674C64.5333 48.5234 62.2115 50.8453 60.7555 49.3452C59.2561 47.8892 61.5779 45.5677 63.0339 47.0674Z" fill="#F97E27"/>
</svg>
