<svg width="20" height="20" viewBox="0 0 20 20" fill="none" xmlns="http://www.w3.org/2000/svg">
<g clip-path="url(#clip0_2070_5137)">
<path d="M19.5358 10.1873C19.5358 9.36792 19.4693 8.76998 19.3254 8.1499H9.96875V11.8482H15.4609C15.3502 12.7673 14.7523 14.1514 13.4235 15.0815L13.4049 15.2053L16.3633 17.4972L16.5682 17.5176C18.4506 15.7791 19.5358 13.2213 19.5358 10.1873Z" fill="#1F6CDD"/>
<path d="M9.96908 19.9317C12.6598 19.9317 14.9186 19.0458 16.5685 17.5178L13.4238 15.0817C12.5823 15.6685 11.4528 16.0782 9.96908 16.0782C7.33373 16.0782 5.09702 14.3398 4.29969 11.937L4.18282 11.9469L1.10664 14.3276L1.06641 14.4395C2.70518 17.6949 6.07137 19.9317 9.96908 19.9317Z" fill="#34A853"/>
<path d="M4.29626 11.9363C4.08588 11.3163 3.96412 10.6518 3.96412 9.96534C3.96412 9.27878 4.08588 8.61443 4.28519 7.99435L4.27962 7.86229L1.16489 5.44336L1.06298 5.49183C0.387557 6.84275 0 8.35977 0 9.96534C0 11.5709 0.387557 13.0879 1.06298 14.4388L4.29626 11.9363Z" fill="#FBBC05"/>
<path d="M9.96908 3.85336C11.8404 3.85336 13.1027 4.66168 13.8224 5.33718L16.635 2.59107C14.9076 0.985496 12.6598 0 9.96908 0C6.07137 0 2.70518 2.23672 1.06641 5.49214L4.28862 7.99466C5.09702 5.59183 7.33373 3.85336 9.96908 3.85336Z" fill="#EB4335"/>
</g>
<defs>
<clipPath id="clip0_2070_5137">
<rect width="19.544" height="20" fill="white"/>
</clipPath>
</defs>
</svg>
