<svg width="70" height="70" viewBox="0 0 70 70" fill="none" xmlns="http://www.w3.org/2000/svg">
<mask id="mask0_2229_5121" style="mask-type:luminance" maskUnits="userSpaceOnUse" x="0" y="0" width="70" height="70">
<path d="M0 0.000205994H69.9998V70H0V0.000205994Z" fill="white"/>
</mask>
<g mask="url(#mask0_2229_5121)">
<path d="M35 68.6328C53.5243 68.6328 68.6328 53.5243 68.6328 35C68.6328 16.4756 53.5243 1.36711 35 1.36711C16.4757 1.36711 1.36719 16.4756 1.36719 35C1.36719 53.5243 16.4757 68.6328 35 68.6328Z" stroke="#F97E27" stroke-width="2" stroke-miterlimit="2.613" stroke-linecap="round" stroke-linejoin="round"/>
<path d="M19.8826 11.2338C24.2503 8.44965 29.4366 6.83597 35.0001 6.83597C50.5546 6.83597 63.1642 19.4454 63.1642 34.9999C63.1642 50.5545 50.5546 63.1641 35.0001 63.1641C19.4455 63.1641 6.83594 50.5545 6.83594 34.9999C6.83594 29.4369 8.44949 24.2506 11.2333 19.8833" stroke="#F97E27" stroke-width="2" stroke-miterlimit="2.613" stroke-linecap="round" stroke-linejoin="round"/>
<path d="M35.002 34.9999V24.7857C34.5629 24.9408 34.1005 25.0199 33.6348 25.0195C31.3695 25.0195 29.5333 23.1831 29.5333 20.918C29.5333 18.6527 31.3695 16.8164 33.6348 16.8164C34.1142 16.8164 34.5744 16.899 35.002 17.0501V7.4512M35.002 34.9999H24.7878C24.9429 35.4391 25.022 35.9014 25.0216 36.3671C25.0216 38.6324 23.1852 40.4687 20.92 40.4687C18.6547 40.4687 16.8185 38.6324 16.8185 36.3671C16.8185 35.8878 16.901 35.4276 17.0521 34.9999H7.45312M35.002 34.9999V45.2142C35.4411 45.059 35.9035 44.98 36.3692 44.9804C38.6345 44.9804 40.4707 46.8168 40.4707 49.0819C40.4707 51.3472 38.6345 53.1835 36.3692 53.1835C35.8899 53.1835 35.4297 53.1009 35.002 52.9498V62.5488M35.002 34.9999H45.2162C45.0611 34.5608 44.982 34.0985 44.9824 33.6328C44.9824 31.3675 46.8188 29.5312 49.084 29.5312C51.3493 29.5312 53.1855 31.3675 53.1855 33.6328C53.1855 34.1121 53.103 34.5723 52.9519 34.9999H62.5509" stroke="#F97E27" stroke-width="2" stroke-miterlimit="2.613" stroke-linecap="round" stroke-linejoin="round"/>
<path d="M15.0859 15.0859L15.0866 15.0853" stroke="#F97E27" stroke-width="2" stroke-miterlimit="2.613" stroke-linecap="round" stroke-linejoin="round"/>
</g>
</svg>
