<svg width="24" height="24" viewBox="0 0 24 24" fill="none" xmlns="http://www.w3.org/2000/svg">
<g clip-path="url(#clip0_2392_5110)">
<path d="M17.1805 8.06602C17.8433 8.06602 18.3805 7.52876 18.3805 6.86602C18.3805 6.20328 17.8433 5.66602 17.1805 5.66602C16.5178 5.66602 15.9805 6.20328 15.9805 6.86602C15.9805 7.52876 16.5178 8.06602 17.1805 8.06602Z" fill="white"/>
<path d="M12 17C9.2425 17 7 14.7575 7 12C7 9.2425 9.2425 7 12 7C14.7575 7 17 9.2425 17 12C17 14.7575 14.7575 17 12 17ZM12 9.5C10.6213 9.5 9.5 10.6213 9.5 12C9.5 13.3787 10.6213 14.5 12 14.5C13.3787 14.5 14.5 13.3787 14.5 12C14.5 10.6213 13.3787 9.5 12 9.5Z" fill="white"/>
<path d="M17 22H7C4.43 22 2 19.57 2 17V7C2 4.43 4.43 2 7 2H17C19.57 2 22 4.43 22 7V17C22 19.57 19.57 22 17 22ZM7 4.5C5.83125 4.5 4.5 5.83125 4.5 7V17C4.5 18.1912 5.80875 19.5 7 19.5H17C18.1688 19.5 19.5 18.1688 19.5 17V7C19.5 5.83125 18.1688 4.5 17 4.5H7Z" fill="white"/>
</g>
<defs>
<clipPath id="clip0_2392_5110">
<rect width="24" height="24" fill="white"/>
</clipPath>
</defs>
</svg>
