<svg width="70" height="60" viewBox="0 0 70 60" fill="none" xmlns="http://www.w3.org/2000/svg">
<path d="M10.092 45.9068C9.8693 45.9068 9.6466 45.8749 9.43982 45.8113L1.82052 43.6957C1.18425 43.5208 0.65933 43.1072 0.32529 42.5186C0.00715613 41.946 -0.0723773 41.262 0.102596 40.6257L5.98807 20.2016C6.35392 18.9131 7.72189 18.1496 9.02624 18.5155L16.6455 20.6311C17.2818 20.806 17.8226 21.2196 18.1408 21.8081C18.4589 22.3967 18.5384 23.0648 18.3635 23.701L12.478 44.1252C12.1599 45.191 11.1577 45.9068 10.092 45.9068ZM9.85339 44.2843C10.3147 44.4115 10.7919 44.1411 10.935 43.6798L16.8205 23.2557C16.8841 23.033 16.8523 22.7944 16.741 22.5876C16.6296 22.3808 16.4388 22.2376 16.2161 22.174L8.59676 20.0425C8.13547 19.9153 7.65827 20.1857 7.51511 20.647L1.62964 41.0711C1.56601 41.2938 1.59782 41.5324 1.70917 41.7392C1.82052 41.946 2.0114 42.0892 2.23409 42.1528L9.85339 44.2843Z" fill="#F97E27"/>
<path d="M11.111 28.3299C10.8724 28.3299 10.6338 28.2981 10.3952 28.2344C9.71125 28.0436 9.13861 27.5982 8.78866 26.9778C8.43871 26.3575 8.34327 25.6417 8.53415 24.9577C8.93182 23.542 10.4111 22.7148 11.8268 23.0966C13.2425 23.4783 14.0697 24.9736 13.6879 26.3893C13.497 27.0733 13.0516 27.6459 12.4313 27.9958C12.0018 28.2185 11.5564 28.3299 11.111 28.3299ZM11.0951 24.5759C10.9042 24.5759 10.7293 24.6236 10.5702 24.7191C10.3157 24.8622 10.1407 25.0849 10.0612 25.3712C9.90213 25.9439 10.2362 26.5324 10.8088 26.6915C11.0792 26.771 11.3814 26.7392 11.636 26.5961C11.8905 26.4529 12.0654 26.2302 12.145 25.9439C12.304 25.3712 11.97 24.7827 11.3974 24.6236C11.286 24.5918 11.1906 24.5759 11.0951 24.5759ZM59.9127 45.9068C58.847 45.9068 57.8448 45.2069 57.5426 44.1252L51.6572 23.701C51.4822 23.0648 51.5458 22.3967 51.8798 21.8081C52.2139 21.2196 52.7388 20.806 53.3751 20.6311L60.9944 18.5155C62.2987 18.1496 63.6508 18.9131 64.0325 20.2016L69.918 40.6257C70.093 41.262 70.0294 41.9301 69.6953 42.5186C69.3772 43.0913 68.8364 43.5208 68.2001 43.6957L60.5808 45.8113C60.3581 45.8749 60.1354 45.9068 59.9127 45.9068ZM61.6465 20.0107C61.567 20.0107 61.4875 20.0266 61.4079 20.0425L53.7886 22.1581C53.566 22.2217 53.3751 22.3649 53.2637 22.5717C53.1524 22.7785 53.1206 23.0171 53.1842 23.2397L59.0697 43.6639C59.1969 44.1252 59.69 44.3956 60.1513 44.2684L67.7706 42.1528C67.9933 42.0892 68.1842 41.946 68.2955 41.7392C68.4069 41.5324 68.4387 41.2938 68.3751 41.0711L62.4896 20.647C62.3782 20.2652 62.0124 20.0107 61.6465 20.0107Z" fill="#F97E27"/>
<path d="M58.8464 28.3318C57.6852 28.3318 56.6036 27.5524 56.2696 26.3753C56.0787 25.6913 56.1741 24.9755 56.5082 24.3552C56.8581 23.7348 57.4307 23.2894 58.1147 23.0985C59.5304 22.7009 61.0097 23.5439 61.4074 24.9596C61.8051 26.3753 60.962 27.8546 59.5463 28.2523C59.3236 28.3 59.085 28.3318 58.8464 28.3318ZM58.8464 24.5779C58.751 24.5779 58.6556 24.5938 58.5601 24.6256C58.2897 24.7051 58.0511 24.8801 57.9079 25.1346C57.7648 25.3891 57.733 25.6754 57.8125 25.9458C57.892 26.2162 58.067 26.4548 58.3215 26.598C58.576 26.7412 58.8623 26.773 59.1328 26.6934C59.7054 26.5344 60.0394 25.9458 59.8804 25.3732C59.7531 24.896 59.3236 24.5779 58.8464 24.5779ZM50.5113 46.0042C50.0819 46.0042 49.7319 45.6701 49.716 45.2406C49.7001 44.7952 50.0341 44.4294 50.4795 44.4135C50.5272 44.4135 54.4562 44.2385 57.5262 42.107C57.892 41.8525 58.3851 41.9479 58.6396 42.3138C58.8942 42.6797 58.7987 43.1728 58.4329 43.4273C54.9652 45.8292 50.7181 46.0042 50.5431 46.0042H50.5113ZM14.6259 45.0816C14.4191 45.0816 14.2123 45.002 14.0691 44.843L11.715 42.4888C11.4127 42.1706 11.4127 41.6775 11.715 41.3594C12.0172 41.0413 12.5262 41.0413 12.8443 41.3594L15.1985 43.7136C15.5007 44.0317 15.5007 44.5248 15.1985 44.843C15.0394 45.002 14.8327 45.0816 14.6259 45.0816ZM30.2462 59.3499C29.2123 59.3499 28.1625 58.9522 27.383 58.1569L26.031 56.8048C25.7287 56.4867 25.7287 55.9935 26.031 55.6754C26.3332 55.3573 26.8422 55.3573 27.1603 55.6754L28.5124 57.0275C29.4668 57.9819 31.0416 57.9819 31.996 57.0275C32.4573 56.5662 32.7118 55.9458 32.7118 55.2937C32.7118 54.9755 32.6481 54.6574 32.5368 54.3711C32.4095 54.0688 32.2346 53.7984 31.996 53.5598C31.6937 53.2417 31.6937 52.7486 31.996 52.4304C32.2982 52.1123 32.8072 52.1123 33.1253 52.4304L36.1476 55.4527C37.102 56.4071 38.6768 56.4071 39.6312 55.4527C40.0925 54.9914 40.347 54.3711 40.347 53.703C40.347 53.0349 40.0925 52.4304 39.6312 51.9532C39.313 51.6351 39.313 51.142 39.6312 50.8239C39.9493 50.5057 40.4424 50.5057 40.7605 50.8239C41.5241 51.5874 41.9535 52.6054 41.9535 53.6871C41.9535 54.7687 41.54 55.7868 40.7605 56.5503C39.1858 58.125 36.6089 58.125 35.0341 56.5503L34.2865 55.8027C34.1752 56.6775 33.7775 57.5047 33.1253 58.1409C32.3141 58.9522 31.2802 59.3499 30.2462 59.3499Z" fill="#F97E27"/>
<path d="M43.7993 54.4634C42.7653 54.4634 41.7314 54.0657 40.9361 53.2704L33.5235 45.8579C33.2213 45.5397 33.2213 45.0466 33.5235 44.7285C33.8258 44.4104 34.3348 44.4104 34.6529 44.7285L42.0654 52.141C43.0198 53.0954 44.5946 53.0954 45.549 52.141C46.5034 51.1866 46.5034 49.6118 45.549 48.6574L38.1365 41.2449C37.8183 40.9268 37.8183 40.4337 38.1365 40.1156C38.4546 39.7974 38.9477 39.7974 39.2659 40.1156L46.6784 47.5281C48.2531 49.1028 48.2531 51.6797 46.6784 53.2545C45.883 54.0816 44.8332 54.4634 43.7993 54.4634Z" fill="#F97E27"/>
<path d="M47.3016 48.7524C46.2199 48.7524 45.2019 48.3389 44.4384 47.5594C44.1203 47.2413 44.1203 46.7482 44.4384 46.4301C44.7565 46.1119 45.2496 46.1119 45.5678 46.4301C46.0291 46.8914 46.6494 47.1459 47.3175 47.1459C47.9856 47.1459 48.59 46.8914 49.0672 46.4301C49.4331 46.0642 49.6717 45.587 49.7512 45.078C49.7671 44.9507 49.783 44.8235 49.783 44.6803C49.783 44.0282 49.5285 43.4078 49.0672 42.9306L37.2804 31.1438C36.4214 30.2848 35.1648 29.9667 34.0036 30.2848C33.3992 30.4598 32.8742 30.7779 32.4448 31.2392L28.7544 35.2477C28.7385 35.2477 28.7385 35.2636 28.7385 35.2636C27.0047 36.9974 24.2051 36.9974 22.4713 35.2636C21.0874 33.8797 20.7693 31.78 21.6919 30.0462C22.8689 27.8352 24.905 24.7811 27.9273 22.8882C27.9432 22.8882 27.9432 22.8723 27.9591 22.8723C30.4405 21.3134 33.1606 20.8044 36.0397 21.3134C36.4692 21.3771 42.466 22.2996 47.1743 25.5128L52.2645 23.3177C52.6622 23.1427 53.1394 23.3336 53.3143 23.7312C53.4893 24.1289 53.2984 24.6061 52.9008 24.7811L47.397 27.1512C47.1425 27.2625 46.8403 27.2307 46.6176 27.0717C42.116 23.8267 35.8647 22.8882 35.8011 22.8882H35.7693C33.2719 22.4269 30.9177 22.8882 28.7862 24.2403C28.7703 24.2403 28.7703 24.2562 28.7544 24.2562C26.0503 25.9741 24.1892 28.7578 23.1075 30.7938C22.519 31.9073 22.7258 33.2434 23.6007 34.1342C24.6982 35.2318 26.4957 35.2477 27.6091 34.1501L31.2677 30.1735C31.888 29.5054 32.6834 29.0123 33.5582 28.7578C35.2762 28.2806 37.1372 28.7578 38.3939 30.0144L50.1807 41.8012C50.9442 42.5648 51.3737 43.5828 51.3737 44.6644C51.3737 44.8871 51.3578 45.1098 51.326 45.3166C51.1987 46.1597 50.8011 46.9232 50.1966 47.5435C49.4013 48.323 48.3833 48.7524 47.3016 48.7524Z" fill="#F97E27"/>
<path d="M17.2969 25.3876C16.9311 25.3876 16.613 25.1331 16.5175 24.7673C16.4221 24.3378 16.6925 23.9083 17.122 23.8129C22.2916 22.6358 28.1135 22.7789 28.368 22.7948C28.7975 22.8107 29.1474 23.1607 29.1474 23.5902C29.1474 24.0355 28.7816 24.4014 28.3362 24.3855C28.0976 24.3855 22.4666 24.2264 17.4878 25.3717C17.4083 25.3717 17.3606 25.3876 17.2969 25.3876ZM16.4698 48.2455C15.6904 48.2455 14.9587 47.9433 14.4019 47.3865C13.8452 46.8298 13.543 46.0981 13.543 45.3187C13.543 44.5392 13.8452 43.8075 14.4019 43.2508L16.9152 40.7376C18.0446 39.6082 19.9056 39.6082 21.035 40.7376C21.5917 41.2943 21.894 42.026 21.894 42.8054C21.894 43.5849 21.5917 44.3166 21.035 44.8733C20.7328 45.1914 20.2238 45.1914 19.9056 44.8733C19.6034 44.5552 19.6034 44.062 19.9056 43.7439C20.1601 43.4894 20.2874 43.1554 20.2874 42.8054C20.2874 42.4555 20.1442 42.1214 19.9056 41.8669C19.3807 41.342 18.5536 41.342 18.0287 41.8669L15.5154 44.3802C15.2609 44.6347 15.1336 44.9687 15.1336 45.3187C15.1336 45.6686 15.2768 46.0027 15.5154 46.2572C15.7699 46.5117 16.1039 46.6389 16.4539 46.6389C16.8038 46.6389 17.1379 46.4958 17.3924 46.2572C17.6946 45.939 18.2036 45.939 18.5218 46.2572C18.824 46.5753 18.824 47.0684 18.5218 47.3865C17.9809 47.9433 17.2492 48.2455 16.4698 48.2455Z" fill="#F97E27"/>
<path d="M18.5831 52.1422C17.8355 52.1422 17.0879 51.8559 16.5152 51.2833C15.9585 50.7265 15.6562 49.9948 15.6562 49.2154C15.6562 48.436 15.9585 47.7043 16.5152 47.1475L19.9192 43.7435C21.0486 42.6141 22.9097 42.6141 24.0391 43.7435C24.5958 44.3002 24.898 45.032 24.898 45.8114C24.898 46.5908 24.5958 47.3225 24.0391 47.8793C23.7368 48.1974 23.2278 48.1974 22.9097 47.8793C22.6075 47.5611 22.6075 47.068 22.9097 46.7499C23.1642 46.4954 23.2915 46.1613 23.2915 45.8114C23.2915 45.4614 23.1483 45.1274 22.9097 44.8729C22.3848 44.348 21.5417 44.348 21.0327 44.8729L17.6446 48.2928C17.3901 48.5473 17.2628 48.8814 17.2628 49.2313C17.2628 49.5813 17.406 49.9153 17.6446 50.1698C18.1695 50.6947 18.9967 50.6947 19.5216 50.1698C19.8238 49.8517 20.3328 49.8517 20.6509 50.1698C20.9691 50.4879 20.9532 50.9811 20.6509 51.2992C20.0783 51.8559 19.3307 52.1422 18.5831 52.1422Z" fill="#F97E27"/>
<path d="M20.5909 56.1343C19.8115 56.1343 19.0798 55.8321 18.523 55.2754C17.9663 54.7186 17.6641 53.9869 17.6641 53.2075C17.6641 52.4281 17.9663 51.6964 18.523 51.1396L22.9133 46.7494C24.0426 45.62 25.9037 45.62 27.0331 46.7494C27.5898 47.3061 27.8921 48.0378 27.8921 48.8172C27.8921 49.5967 27.5898 50.3284 27.0331 50.8851L22.6429 55.2754C22.102 55.8321 21.3703 56.1343 20.5909 56.1343ZM24.997 47.497C24.663 47.497 24.3131 47.6242 24.0585 47.8787L19.6524 52.269C19.3979 52.5235 19.2706 52.8575 19.2706 53.2075C19.2706 53.5574 19.4138 53.8915 19.6524 54.146C19.9069 54.4005 20.2409 54.5277 20.5909 54.5277C20.9408 54.5277 21.2749 54.3846 21.5294 54.146L25.9196 49.7557C26.1741 49.5012 26.3014 49.1672 26.3014 48.8172C26.3014 48.4673 26.1582 48.1333 25.9196 47.8787C25.6651 47.6242 25.3311 47.497 24.997 47.497Z" fill="#F97E27"/>
<path d="M24.8682 57.8527C24.0888 57.8527 23.3571 57.5505 22.8004 56.9938C22.2436 56.4371 21.9414 55.7053 21.9414 54.9259C21.9414 54.1465 22.2436 53.4148 22.8004 52.858C23.1026 52.5399 23.6116 52.5399 23.9297 52.858C24.232 53.1762 24.232 53.6693 23.9297 53.9874C23.6752 54.2419 23.548 54.576 23.548 54.9259C23.548 55.2759 23.6911 55.6099 23.9297 55.8644C24.1842 56.1189 24.5183 56.2462 24.8682 56.2462C25.2182 56.2462 25.5522 56.103 25.8067 55.8644L28.9244 52.7467C29.4494 52.2218 29.4494 51.3946 28.9244 50.8697C28.3995 50.3448 27.5724 50.3448 27.0474 50.8697C26.7452 51.1878 26.2362 51.1878 25.9181 50.8697C25.6158 50.5516 25.6158 50.0585 25.9181 49.7403C27.0474 48.611 28.9085 48.611 30.0379 49.7403C31.1673 50.8697 31.1673 52.7308 30.0379 53.8602L26.9202 56.9779C26.3794 57.5505 25.6477 57.8527 24.8682 57.8527ZM43.0496 25.0055C42.8905 25.0055 42.7155 24.9577 42.5724 24.8464C42.2224 24.576 42.1588 24.0829 42.4133 23.7329C44.7039 20.7266 45.8969 17.0998 45.8969 13.2981V6.53781L35.0008 2.30664L24.1047 6.53781V13.2981C24.1047 16.8453 25.1546 20.2494 27.1588 23.1285C27.4133 23.4943 27.3179 23.9874 26.952 24.2419C26.5862 24.4964 26.093 24.401 25.8385 24.0352C23.6593 20.8856 22.4981 17.1635 22.4981 13.2981V5.99699C22.4981 5.66295 22.7049 5.37663 23.0072 5.24937L34.6986 0.700064C34.8894 0.636437 35.0962 0.636437 35.2712 0.700064L46.9626 5.24937C47.2648 5.37663 47.4716 5.66295 47.4716 5.99699V13.2981C47.4716 17.4657 46.1514 21.3946 43.654 24.7032C43.5268 24.91 43.2882 25.0055 43.0496 25.0055Z" fill="#F97E27"/>
<path d="M38.9619 23.589C38.771 23.589 38.5801 23.5254 38.4211 23.3823C38.1029 23.08 38.0711 22.5869 38.3733 22.2529C40.6162 19.8033 41.8569 16.6219 41.8569 13.2974V9.32076L35.0011 6.64843L28.1454 9.32076V13.2974C28.1454 16.4629 29.2747 19.5328 31.3426 21.9347C31.6289 22.2688 31.5971 22.7778 31.2631 23.0641C30.929 23.3504 30.42 23.3186 30.1337 22.9846C27.8248 20.2912 26.5553 16.8609 26.5547 13.3133V8.76402C26.5547 8.42998 26.7615 8.14366 27.0637 8.01641L34.7148 5.04186C34.9057 4.97823 35.1125 4.97823 35.2875 5.04186L42.9386 8.01641C43.2408 8.14366 43.4476 8.42998 43.4476 8.76402V13.2974C43.4476 17.0196 42.0637 20.5827 39.5504 23.3345C39.3755 23.5095 39.1687 23.589 38.9619 23.589Z" fill="#F97E27"/>
<path d="M33.4436 18.4996C33.2369 18.4996 33.0301 18.42 32.8869 18.261L30.6759 16.0499C30.3737 15.7477 30.3737 15.2387 30.6759 14.9205C30.9781 14.6183 31.4871 14.6183 31.8053 14.9205L33.4596 16.5748L38.2316 11.8028C38.5497 11.5006 39.0428 11.5006 39.3609 11.8028C39.6791 12.1051 39.6791 12.6141 39.3609 12.9322L34.0322 18.261C33.8572 18.42 33.6504 18.4996 33.4436 18.4996Z" fill="#F97E27"/>
</svg>
