<svg width="24" height="24" viewBox="0 0 24 24" fill="none" xmlns="http://www.w3.org/2000/svg">
<g clip-path="url(#clip0_2392_5102)">
<path d="M21.125 2H2.875C2.375 2 2 2.375 2 2.875V21.25C2 21.625 2.375 22 2.875 22H21.25C21.75 22 22.125 21.625 22.125 21.125V2.875C22 2.375 21.625 2 21.125 2ZM7.875 19H5V9.5H8V19H7.875ZM6.5 8.25C5.5 8.25 4.75 7.375 4.75 6.5C4.75 5.5 5.5 4.75 6.5 4.75C7.5 4.75 8.25 5.5 8.25 6.5C8.125 7.375 7.375 8.25 6.5 8.25ZM19 19H16V14.375C16 13.25 16 11.875 14.5 11.875C13 11.875 12.75 13.125 12.75 14.375V19.125H9.75V9.5H12.625V10.75C13 10 14 9.25 15.375 9.25C18.375 9.25 18.875 11.25 18.875 13.75V19H19Z" fill="white"/>
</g>
<defs>
<clipPath id="clip0_2392_5102">
<rect width="24" height="24" fill="white"/>
</clipPath>
</defs>
</svg>
