<svg width="12" height="14" viewBox="0 0 12 14" fill="none" xmlns="http://www.w3.org/2000/svg">
<path d="M5.99568 0C7.58583 0 9.11086 0.631686 10.2353 1.75609C11.3597 2.8805 11.9914 4.40553 11.9914 5.99568C11.9914 8.47789 10.0994 11.0787 6.39539 13.8567C6.28008 13.9432 6.13982 13.9899 5.99568 13.9899C5.85154 13.9899 5.71128 13.9432 5.59597 13.8567C1.89197 11.0787 0 8.47789 0 5.99568C0 4.40553 0.631686 2.8805 1.75609 1.75609C2.8805 0.631686 4.40553 0 5.99568 0ZM5.99568 3.99712C5.46563 3.99712 4.95729 4.20768 4.58248 4.58248C4.20768 4.95729 3.99712 5.46563 3.99712 5.99568C3.99712 6.52573 4.20768 7.03407 4.58248 7.40888C4.95729 7.78368 5.46563 7.99424 5.99568 7.99424C6.52573 7.99424 7.03407 7.78368 7.40887 7.40888C7.78368 7.03407 7.99424 6.52573 7.99424 5.99568C7.99424 5.46563 7.78368 4.95729 7.40887 4.58248C7.03407 4.20768 6.52573 3.99712 5.99568 3.99712Z" fill="#919191"/>
</svg>
