<svg width="20" height="20" viewBox="0 0 20 20" fill="none" xmlns="http://www.w3.org/2000/svg">
<g clip-path="url(#clip0_2013_5091)">
<path d="M14.1667 7.61621H5.83333C4.68274 7.61621 3.75 8.54895 3.75 9.69954V15.9495C3.75 17.1001 4.68274 18.0329 5.83333 18.0329H14.1667C15.3173 18.0329 16.25 17.1001 16.25 15.9495V9.69954C16.25 8.54895 15.3173 7.61621 14.1667 7.61621Z" stroke="#1C264E" stroke-width="1.4" stroke-linecap="round" stroke-linejoin="round"/>
<path d="M9.9987 1.36621C8.89363 1.36621 7.83382 1.8052 7.05242 2.5866C6.27102 3.368 5.83203 4.42781 5.83203 5.53288V7.61621H14.1654V5.53288C14.1654 4.42781 13.7264 3.368 12.945 2.5866C12.1636 1.8052 11.1038 1.36621 9.9987 1.36621V1.36621Z" stroke="#1C264E" stroke-width="1.4" stroke-linecap="round" stroke-linejoin="round"/>
<path d="M14.1667 7.61621H5.83333C4.68274 7.61621 3.75 8.54895 3.75 9.69954V15.9495C3.75 17.1001 4.68274 18.0329 5.83333 18.0329H14.1667C15.3173 18.0329 16.25 17.1001 16.25 15.9495V9.69954C16.25 8.54895 15.3173 7.61621 14.1667 7.61621Z" stroke="#1C264E" stroke-width="1.66667" stroke-linecap="round" stroke-linejoin="round"/>
<path d="M9.9987 1.36621C8.89363 1.36621 7.83382 1.8052 7.05242 2.5866C6.27102 3.368 5.83203 4.42781 5.83203 5.53288V7.61621H14.1654V5.53288C14.1654 4.42781 13.7264 3.368 12.945 2.5866C12.1636 1.8052 11.1038 1.36621 9.9987 1.36621V1.36621Z" stroke="#1C264E" stroke-width="1.66667" stroke-linecap="round" stroke-linejoin="round"/>
</g>
<defs>
<clipPath id="clip0_2013_5091">
<rect width="20" height="20" fill="white"/>
</clipPath>
</defs>
</svg>
