<svg width="18" height="16" viewBox="0 0 18 16" fill="none" xmlns="http://www.w3.org/2000/svg">
<path d="M10.625 4.5V2.75C10.625 2.28587 10.4406 1.84075 10.1124 1.51256C9.78425 1.18437 9.33913 1 8.875 1H2.75C2.28587 1 1.84075 1.18437 1.51256 1.51256C1.18437 1.84075 1 2.28587 1 2.75V13.25C1 13.7141 1.18437 14.1592 1.51256 14.4874C1.84075 14.8156 2.28587 15 2.75 15H8.875C9.33913 15 9.78425 14.8156 10.1124 14.4874C10.4406 14.1592 10.625 13.7141 10.625 13.25V11.5" stroke="#FE4101" stroke-width="1.3125" stroke-linecap="round" stroke-linejoin="round"/>
<path d="M6.25 8H16.75M16.75 8L14.125 5.375M16.75 8L14.125 10.625" stroke="#FE4101" stroke-width="1.3125" stroke-linecap="round" stroke-linejoin="round"/>
</svg>
