<svg width="64" height="64" viewBox="0 0 64 64" fill="none" xmlns="http://www.w3.org/2000/svg">
<path fill-rule="evenodd" clip-rule="evenodd" d="M16.6813 39.3802C20.9369 39.3833 25.0173 41.0754 28.0262 44.0849C31.0351 47.0943 32.7265 51.175 32.7288 55.4306C32.7288 57.7027 31.2967 59.6831 28.6629 61.0452C25.755 62.5502 21.2225 63.3552 16.6813 63.3552C12.1371 63.3552 7.60461 62.5502 4.69669 61.0452C2.06294 59.6831 0.630859 57.7027 0.630859 55.4306C0.633178 51.1745 2.32494 47.0934 5.33448 44.0838C8.34401 41.0743 12.4252 39.3825 16.6813 39.3802ZM16.6813 43.7552C13.5852 43.7568 10.6164 44.9873 8.42722 47.1766C6.23799 49.3658 5.0074 52.3346 5.00586 55.4306C5.00586 56.224 5.78461 56.6819 6.70628 57.1602C9.12128 58.4085 12.9071 58.9802 16.6813 58.9802C20.4525 58.9802 24.2384 58.4085 26.6534 57.1602C27.575 56.6819 28.3538 56.224 28.3538 55.4306C28.353 52.3349 27.1231 49.3661 24.9343 47.1767C22.7455 44.9874 19.777 43.7568 16.6813 43.7552ZM47.3179 16.0469C51.5741 16.0492 55.6552 17.741 58.6647 20.7505C61.6743 23.76 63.366 27.8412 63.3684 32.0973C63.3684 34.3694 61.9363 36.3498 59.3025 37.7119C56.3946 39.2169 51.8621 40.0219 47.3179 40.0219C42.7767 40.0219 38.2442 39.2169 35.3363 37.7119C32.7025 36.3498 31.2704 34.3694 31.2704 32.0973C31.2728 27.8417 32.9641 23.761 35.973 20.7515C38.9819 17.7421 43.0623 16.05 47.3179 16.0469ZM47.3179 20.4219C44.2222 20.4234 41.2537 21.6541 39.0649 23.8434C36.8762 26.0327 35.6462 29.0015 35.6454 32.0973C35.6454 32.8906 36.4242 33.3485 37.3459 33.8269C39.7609 35.0752 43.5467 35.6469 47.3179 35.6469C51.0921 35.6469 54.8779 35.0752 57.2929 33.8269C58.2146 33.3485 58.9934 32.8906 58.9934 32.0973C58.9918 29.0013 57.7612 26.0325 55.572 23.8432C53.3828 21.654 50.414 20.4234 47.3179 20.4219Z" fill="#F97E27"/>
<path fill-rule="evenodd" clip-rule="evenodd" d="M16.6823 23.9798C22.1394 23.9798 26.5698 28.4102 26.5698 33.8673C26.4933 36.4391 25.4179 38.8799 23.5717 40.672C21.7255 42.4641 19.2538 43.4665 16.6809 43.4665C14.1079 43.4665 11.6362 42.4641 9.79001 40.672C7.94382 38.8799 6.86841 36.4391 6.7919 33.8673C6.7919 28.4102 11.2252 23.9798 16.6823 23.9798ZM16.6823 28.3548C13.6373 28.3548 11.1669 30.8252 11.1669 33.8673C11.2 35.3078 11.7955 36.678 12.826 37.6851C13.8564 38.6921 15.24 39.2559 16.6809 39.2559C18.1217 39.2559 19.5053 38.6921 20.5357 37.6851C21.5662 36.678 22.1617 35.3078 22.1948 33.8673C22.1948 30.8252 19.7244 28.3548 16.6823 28.3548ZM47.319 0.646484C52.7761 0.646484 57.2094 5.0769 57.2094 10.534C57.2094 15.9911 52.7761 20.4215 47.319 20.4215C41.8619 20.4215 37.4315 15.9911 37.4315 10.534C37.4315 5.0769 41.8619 0.646484 47.319 0.646484ZM47.319 5.02148C46.5947 5.02187 45.8776 5.16491 45.2086 5.44244C44.5395 5.71997 43.9317 6.12655 43.4199 6.63898C42.908 7.1514 42.502 7.75963 42.2252 8.42894C41.9484 9.09824 41.8061 9.81552 41.8065 10.5398C41.8069 11.2641 41.9499 11.9812 42.2274 12.6503C42.505 13.3193 42.9116 13.9271 43.424 14.439C43.9364 14.9508 44.5446 15.3568 45.2139 15.6336C45.8832 15.9104 46.6005 16.0527 47.3248 16.0523C48.7876 16.0515 50.1902 15.4697 51.224 14.4348C52.2577 13.3999 52.8381 11.9968 52.8373 10.534C52.8365 9.0712 52.2547 7.66864 51.2198 6.63485C50.1849 5.60106 48.7818 5.02071 47.319 5.02148ZM58.9944 46.5811C58.9952 46.0009 59.2264 45.4448 59.6372 45.0351C60.0479 44.6254 60.6047 44.3957 61.1848 44.3965C61.765 44.3973 62.3211 44.6285 62.7308 45.0393C63.1405 45.45 63.3702 46.0067 63.3694 46.5869L63.3607 55.3427C63.3583 57.4685 62.5123 59.5064 61.0083 61.0087C59.5044 62.511 57.4656 63.3548 55.3398 63.3548H39.2923C38.7122 63.3548 38.1558 63.1244 37.7455 62.7141C37.3353 62.3039 37.1048 61.7475 37.1048 61.1673C37.1048 60.5872 37.3353 60.0308 37.7455 59.6205C38.1558 59.2103 38.7122 58.9798 39.2923 58.9798H55.3398C56.3063 58.9798 57.2331 58.5961 57.9168 57.913C58.6004 57.2299 58.9849 56.3033 58.9857 55.3369L58.9944 46.5811ZM5.02149 17.4202C5.02071 18.0004 4.7895 18.5565 4.37872 18.9662C3.96794 19.3759 3.41123 19.6056 2.83107 19.6048C2.25091 19.604 1.69482 19.3728 1.28513 18.9621C0.875439 18.5513 0.645713 17.9946 0.646486 17.4144L0.655236 8.65857C0.657555 6.53283 1.50363 4.49494 3.00758 2.99264C4.51152 1.49033 6.55033 0.646483 8.67607 0.646484H30.5423C31.1225 0.646484 31.6789 0.876953 32.0891 1.28719C32.4994 1.69742 32.7298 2.25382 32.7298 2.83398C32.7298 3.41415 32.4994 3.97054 32.0891 4.38078C31.6789 4.79102 31.1225 5.02148 30.5423 5.02148H8.67607C7.70964 5.02148 6.78275 5.4052 6.09911 6.08829C5.41546 6.77139 5.03101 7.69797 5.03024 8.6644L5.02149 17.4202Z" fill="#F97E27"/>
</svg>
