<svg width="70" height="70" viewBox="0 0 70 70" fill="none" xmlns="http://www.w3.org/2000/svg">
<path d="M42.6615 68.9062H12.4627C10.2927 68.9062 8.52734 67.1409 8.52734 64.9709V5.02906C8.52734 2.85906 10.2927 1.09375 12.4627 1.09375H42.6615C44.8315 1.09375 46.5968 2.85906 46.5968 5.02906V18.4851C46.5968 18.7751 46.4816 19.0533 46.2765 19.2585C46.0713 19.4636 45.7931 19.5788 45.5031 19.5788C45.213 19.5788 44.9348 19.4636 44.7297 19.2585C44.5246 19.0533 44.4093 18.7751 44.4093 18.4851V5.02906C44.4093 4.06533 43.6252 3.28125 42.6615 3.28125H12.4627C11.4989 3.28125 10.7148 4.06533 10.7148 5.02906V64.9709C10.7148 65.9347 11.4989 66.7188 12.4627 66.7188H42.6615C43.6252 66.7188 44.4093 65.9347 44.4093 64.9709V50.4237C44.4093 50.1336 44.5246 49.8554 44.7297 49.6503C44.9348 49.4451 45.213 49.3299 45.5031 49.3299C45.7931 49.3299 46.0713 49.4451 46.2765 49.6503C46.4816 49.8554 46.5968 50.1336 46.5968 50.4237V64.9708C46.5968 67.1409 44.8315 68.9062 42.6615 68.9062Z" fill="#F97E27"/>
<path d="M36.2961 7.50408H18.8271C18.5962 7.5041 18.3711 7.431 18.1843 7.29525C17.9974 7.15951 17.8583 6.96809 17.787 6.74844L16.4148 2.52561C16.3252 2.24972 16.3489 1.94953 16.4805 1.69107C16.6122 1.4326 16.8412 1.23702 17.117 1.14734C17.6915 0.96127 18.3087 1.27518 18.4953 1.84953L19.6219 5.31658H35.5015L36.628 1.84953C36.7208 1.57755 36.9169 1.35299 37.1739 1.2244C37.4308 1.09581 37.7281 1.07351 38.0014 1.16233C38.2747 1.25114 38.5021 1.44393 38.6344 1.69903C38.7667 1.95413 38.7933 2.25105 38.7085 2.52561L37.3364 6.74844C37.2649 6.96808 37.1258 7.15947 36.9389 7.29521C36.7521 7.43095 36.527 7.50406 36.2961 7.50408ZM30.0564 64.2236H25.0667C23.4344 64.2236 22.1063 62.8955 22.1063 61.2633C22.1063 59.631 23.4344 58.3029 25.0667 58.3029H30.0564C31.6887 58.3029 33.0167 59.631 33.0167 61.2633C33.0167 62.8955 31.6888 64.2236 30.0564 64.2236ZM25.0667 60.4903C24.6405 60.4903 24.2938 60.837 24.2938 61.2631C24.2938 61.6893 24.6405 62.036 25.0667 62.036H30.0564C30.4825 62.036 30.8292 61.6893 30.8292 61.2631C30.8292 60.837 30.4825 60.4903 30.0564 60.4903H25.0667ZM41.0529 52.1216C31.3112 52.1216 23.3857 44.196 23.3857 34.4542C23.3857 24.7125 31.3112 16.787 41.0529 16.787C45.6439 16.787 49.9938 18.5395 53.301 21.7217L51.7843 23.298C48.8866 20.5099 45.0755 18.9745 41.0529 18.9745C32.5173 18.9745 25.5732 25.9186 25.5732 34.4542C25.5732 42.9898 32.5173 49.9341 41.0529 49.9341C49.5886 49.9341 56.5328 42.9898 56.5328 34.4542C56.5328 31.8166 55.8581 29.2131 54.5817 26.9251L56.492 25.8594C57.9497 28.4724 58.7203 31.4446 58.7203 34.4542C58.7203 44.1961 50.7947 52.1216 41.0529 52.1216Z" fill="#F97E27"/>
<path d="M40.505 42.9482C39.5955 42.9482 38.6858 42.602 37.9934 41.9096L32.5464 36.4627C31.1616 35.0779 31.1616 32.8245 32.5464 31.4395C33.9315 30.0547 36.1849 30.0545 37.5697 31.4394L40.4571 34.3266L55.367 17.7295C55.3787 17.7163 55.3909 17.7036 55.4033 17.6911C56.0696 17.018 56.9585 16.6454 57.9065 16.6417L57.9207 16.6416C58.8651 16.6416 59.7531 17.008 60.4228 17.674C61.8073 19.0507 61.8145 21.3002 60.4391 22.6883C58.8592 24.2828 55.3671 28.2154 51.99 32.0182C48.4129 36.0465 44.7141 40.2119 43.0166 41.9094C42.3243 42.6019 41.4147 42.9482 40.505 42.9482ZM35.0582 32.5872C34.879 32.5869 34.7015 32.622 34.5359 32.6905C34.3702 32.759 34.2198 32.8595 34.0931 32.9863C33.5612 33.5183 33.5612 34.384 34.0933 34.9158L39.5401 40.3627C40.0721 40.895 40.9378 40.895 41.4697 40.3627C43.1214 38.711 46.7984 34.5704 50.3542 30.566C53.9071 26.5649 57.263 22.7859 58.885 21.1487C59.4129 20.6159 59.4108 19.7529 58.8801 19.2252C58.7541 19.0992 58.6044 18.9994 58.4397 18.9314C58.2749 18.8635 58.0984 18.8288 57.9202 18.8292H57.9147C57.5628 18.8295 57.225 18.9677 56.9737 19.2141L41.3134 36.647C41.2141 36.7575 41.0933 36.8466 40.9585 36.9089C40.8236 36.9711 40.6775 37.0053 40.529 37.0093C40.3806 37.013 40.2329 36.9866 40.0949 36.9316C39.957 36.8767 39.8316 36.7942 39.7265 36.6894L36.0232 32.9862C35.8965 32.8594 35.7461 32.759 35.5805 32.6905C35.4149 32.622 35.2374 32.5869 35.0582 32.5872Z" fill="#F97E27"/>
</svg>
