<svg width="12" height="12" viewBox="0 0 12 12" fill="none" xmlns="http://www.w3.org/2000/svg">
<path d="M11.9912 0.866769L10.4919 10.5946C10.4749 10.7078 10.4323 10.8157 10.3672 10.9099C10.3022 11.004 10.2164 11.0821 10.1165 11.1379C10.0166 11.1938 9.90517 11.226 9.79087 11.2321C9.67657 11.2382 9.56239 11.218 9.4571 11.1731L6.58979 9.97474L5.39775 11.762C5.35726 11.8345 5.29809 11.8948 5.22639 11.9366C5.15469 11.9785 5.07308 12.0004 4.99006 12C4.8608 12 4.73684 11.9486 4.64544 11.8572C4.55404 11.7658 4.50269 11.6418 4.50269 11.5126V9.25963C4.50213 9.09302 4.55711 8.93098 4.65894 8.79911L9.74993 2.25247L2.86881 8.44622L0.465076 7.44653C0.331897 7.39103 0.217483 7.29841 0.135474 7.17969C0.0534648 7.06097 0.00732015 6.92118 0.00254079 6.77696C-0.0092386 6.63667 0.0201122 6.49598 0.0870042 6.37211C0.153896 6.24823 0.25543 6.14654 0.379192 6.07945L10.8789 0.0988886C11.0012 0.0288689 11.1409 -0.00518584 11.2818 0.000639777C11.4227 0.00646539 11.559 0.0519348 11.6752 0.13182C11.7914 0.211706 11.8827 0.322764 11.9386 0.452227C11.9945 0.58169 12.0127 0.724301 11.9912 0.863664V0.866769Z" fill="white"/>
</svg>
