<svg width="40" height="41" viewBox="0 0 40 41" fill="none" xmlns="http://www.w3.org/2000/svg">
<rect x="1" y="1.85059" width="38" height="38" rx="19" fill="currentColor" fill-opacity="0.1"/>
<rect x="1" y="1.85059" width="38" height="38" rx="19" stroke="currentColor" stroke-width="2"/>
<path d="M11 9.85059H23.414L29 15.4366V31.8506H11V9.85059ZM13 11.8506V29.8506H27V16.2646L22.586 11.8506H13ZM20 17.8506C19.6022 17.8506 19.2206 18.0086 18.9393 18.2899C18.658 18.5712 18.5 18.9528 18.5 19.3506C18.5 19.7484 18.658 20.1299 18.9393 20.4112C19.2206 20.6926 19.6022 20.8506 20 20.8506C20.3978 20.8506 20.7794 20.6926 21.0607 20.4112C21.342 20.1299 21.5 19.7484 21.5 19.3506C21.5 18.9528 21.342 18.5712 21.0607 18.2899C20.7794 18.0086 20.3978 17.8506 20 17.8506ZM16.5 19.3506C16.5 18.891 16.5905 18.4358 16.7664 18.0112C16.9423 17.5866 17.2001 17.2007 17.5251 16.8757C17.8501 16.5507 18.236 16.2929 18.6606 16.117C19.0852 15.9411 19.5404 15.8506 20 15.8506C20.4596 15.8506 20.9148 15.9411 21.3394 16.117C21.764 16.2929 22.1499 16.5507 22.4749 16.8757C22.7999 17.2007 23.0577 17.5866 23.2336 18.0112C23.4095 18.4358 23.5 18.891 23.5 19.3506C23.5 20.2788 23.1313 21.1691 22.4749 21.8255C21.8185 22.4818 20.9283 22.8506 20 22.8506C19.0717 22.8506 18.1815 22.4818 17.5251 21.8255C16.8687 21.1691 16.5 20.2788 16.5 19.3506ZM14 27.8506C14 26.7897 14.4214 25.7723 15.1716 25.0222C15.9217 24.272 16.9391 23.8506 18 23.8506H22C23.0609 23.8506 24.0783 24.272 24.8284 25.0222C25.5786 25.7723 26 26.7897 26 27.8506V28.8506H24V27.8506C24 27.3202 23.7893 26.8114 23.4142 26.4364C23.0391 26.0613 22.5304 25.8506 22 25.8506H18C17.4696 25.8506 16.9609 26.0613 16.5858 26.4364C16.2107 26.8114 16 27.3202 16 27.8506V28.8506H14V27.8506Z" fill="currentColor"/>
</svg>
