<svg width="24" height="24" viewBox="0 0 24 24" fill="none" xmlns="http://www.w3.org/2000/svg">
<g clip-path="url(#clip0_2392_5105)">
<path d="M12 2C6.5 2 2 6.5 2 12C2 16.25 4.625 19.875 8.375 21.25C8.25 20.5 8.25 19.25 8.375 18.375C8.5 17.625 9.5 13.375 9.5 13.375C9.5 13.375 9.25 12.875 9.25 12C9.25 10.625 10.125 9.5 11.125 9.5C12 9.5 12.375 10.125 12.375 10.875C12.375 11.75 11.875 13 11.5 14.25C11.25 15.25 12 16 13 16C14.75 16 16.125 14.125 16.125 11.375C16.125 9 14.375 7.25 12 7.25C9.125 7.25 7.5 9.375 7.5 11.625C7.5 12.5 7.875 13.375 8.25 13.875C8.25 14.125 8.25 14.25 8.25 14.375C8.125 14.75 8 15.375 8 15.5C8 15.625 7.875 15.75 7.625 15.625C6.375 15 5.625 13.25 5.625 11.75C5.625 8.625 7.875 5.75 12.25 5.75C15.75 5.75 18.375 8.25 18.375 11.5C18.375 15 16.25 17.75 13.125 17.75C12.125 17.75 11.125 17.25 10.875 16.625C10.875 16.625 10.375 18.5 10.25 19C10 19.875 9.375 21 9 21.625C10 21.875 11 22 12 22C17.5 22 22 17.5 22 12C22 6.5 17.5 2 12 2Z" fill="white"/>
</g>
<defs>
<clipPath id="clip0_2392_5105">
<rect width="24" height="24" fill="white"/>
</clipPath>
</defs>
</svg>
