<svg width="30" height="28" viewBox="0 0 30 28" fill="none" xmlns="http://www.w3.org/2000/svg">
<g filter="url(#filter0_d_2295_5104)">
<path d="M7.19531 15.0886C7.30196 14.9936 7.48047 14.8401 7.70856 14.6797L7.72905 14.7033L7.19531 15.0886Z" fill="#FF7915"/>
<path d="M7.99961 15.0149C7.68876 15.2067 7.45409 15.4182 7.35922 15.5037C6.49058 16.2867 6.31785 18.1447 6.28639 18.6563L5.79688 19.0831C5.83638 18.4417 6.05285 16.1146 7.1408 15.1339C7.1556 15.1207 7.17373 15.1043 7.19372 15.0865L7.72746 14.7012L7.99961 15.0149Z" fill="#FF7915"/>
<path d="M7.60528 15.906C6.97717 16.4721 6.85239 17.8157 6.82963 18.1854L6.29297 18.6532C6.32451 18.1415 6.49724 16.2835 7.3658 15.5005C7.46067 15.415 7.69534 15.2037 8.00619 15.0117L8.34776 15.4054C7.98798 15.5611 7.70014 15.8205 7.60528 15.906Z" fill="#FFE774"/>
<path d="M8.7235 16.5287L6.82422 18.1842C6.84698 17.8145 6.97176 16.4709 7.59986 15.9047C7.69473 15.8193 7.98257 15.5599 8.34243 15.4043L9.00281 16.1655C8.87925 16.3227 8.78414 16.4478 8.7235 16.5287Z" fill="#FFF4E4"/>
<path d="M10.3212 10.1653C9.52919 11.0433 8.84183 11.9105 8.27745 12.7367C7.13202 11.5782 3.81915 11.4124 4.00773 11.2488C6.01822 9.50425 8.49652 9.39799 10.3212 10.1653Z" fill="#F3210B"/>
<path d="M19.0234 3.31833C21.6991 1.94998 23.8985 1.57521 24.7918 2.534L21.1198 5.73475L19.0234 3.31833Z" fill="#F3210B"/>
<path d="M19.3479 7.27785C18.4781 6.30198 16.9832 6.20313 15.9929 7.06258C14.9997 7.92431 14.8886 9.42428 15.7396 10.4232L14.4502 11.5471L11.8672 8.56979C12.3 8.15234 12.7539 7.7366 13.2274 7.32581C15.0363 5.75609 16.8769 4.47618 18.5555 3.56445L20.7312 6.07224L19.3479 7.27785Z" fill="#E1F2F2"/>
<path d="M8.51658 13.0499L12.5719 12.136C12.1555 11.297 11.3409 10.5972 10.323 10.1692C10.4384 10.0413 10.5551 9.91336 10.6748 9.78516L13.173 12.6646L12.7669 13.0185C12.1815 12.8462 11.8734 13.1988 11.3047 13.6923C11.0199 13.9393 10.7398 14.2105 10.4741 14.4852C10.3364 14.3631 10.1807 14.2602 10.007 14.1862C9.42814 13.9397 8.82336 14.0802 8.31572 14.3243L7.98886 13.9476L7.71094 13.6273C7.88335 13.3382 8.07332 13.0421 8.27922 12.7406C8.37433 12.8366 8.45464 12.9395 8.51658 13.0499Z" fill="#E1F2F2"/>
<path d="M9.65009 14.7489C9.31795 14.6074 8.97508 14.6257 8.65806 14.7195L8.31641 14.3257C8.82405 14.0816 9.42883 13.9411 10.0077 14.1876C10.1814 14.2616 10.3371 14.3644 10.4748 14.4866C10.3153 14.6514 10.1614 14.8172 10.0148 14.98C9.90696 14.8858 9.78527 14.8064 9.65009 14.7489Z" fill="#E1F2F2"/>
<path d="M9.25241 15.3609C9.23217 15.3523 9.21177 15.3447 9.19144 15.3376L8.65234 14.7162C8.96937 14.6224 9.31224 14.6041 9.64438 14.7455C9.77956 14.8031 9.90125 14.8824 10.009 14.9766C9.83524 15.1698 9.67218 15.3582 9.5235 15.5349C9.44368 15.4638 9.35337 15.4039 9.25241 15.3609Z" fill="#E1F2F2"/>
<path d="M9.19141 15.3379C9.21173 15.3449 9.23213 15.3525 9.25237 15.3612C9.35333 15.4041 9.44364 15.4641 9.52355 15.5353C9.4968 15.5671 9.4703 15.5987 9.44446 15.6297L9.19141 15.3379Z" fill="#E1F2F2"/>
<path d="M12.5738 12.1329L8.51853 13.0467C8.45651 12.9364 8.37628 12.8335 8.28125 12.7374C8.84555 11.9112 9.53292 11.044 10.325 10.166C11.3429 10.594 12.1574 11.2938 12.5738 12.1329Z" fill="#E1F2F2"/>
<path d="M20.7343 6.07378L18.5586 3.56599C18.7154 3.48087 18.8707 3.39892 19.0245 3.32031L21.1209 5.73673L20.7343 6.07378Z" fill="#EECF38"/>
<path d="M13.1661 12.6658L10.668 9.78632C11.0456 9.38196 11.4447 8.9763 11.8637 8.57227L14.4467 11.5496L13.1661 12.6658Z" fill="#EECF38"/>
<path d="M7.7144 14.6788L7.53874 14.4763L7.46875 14.3956L7.98533 13.9473L8.31219 14.324C8.09101 14.4304 7.88844 14.5563 7.7144 14.6788Z" fill="#636B6B"/>
<path d="M8.00357 15.0163L7.71094 14.679C7.88497 14.5566 8.08754 14.4306 8.30873 14.3242L8.65038 14.718C8.41562 14.7874 8.19509 14.8981 8.00357 15.0163Z" fill="#636B6B"/>
<path d="M8.00357 15.017L7.73142 14.7033L7.71094 14.6797L8.00357 15.017Z" fill="#636B6B"/>
<path d="M8.34938 15.4088L8.28452 15.334L8.00781 15.0151C8.19933 14.8968 8.41986 14.7861 8.65462 14.7168L9.19372 15.3382C8.90507 15.2385 8.60853 15.2967 8.34938 15.4088Z" fill="#636B6B"/>
<path d="M8.00781 15.0117L8.28452 15.3307L8.00781 15.0117Z" fill="#636B6B"/>
<path d="M8.28906 15.334L8.35393 15.4088L8.28906 15.334Z" fill="#636B6B"/>
<path d="M8.34938 15.4055L8.00781 15.0117L8.28452 15.3307L8.34938 15.4055Z" fill="#636B6B"/>
<path d="M9.01585 16.168L8.35547 15.4068C8.61469 15.2947 8.91115 15.2367 9.1998 15.3362L9.45285 15.6279C9.28426 15.8305 9.13664 16.0143 9.01585 16.168Z" fill="#636B6B"/>
<path d="M9.19144 15.3382L8.65234 14.7168L9.19144 15.3382Z" fill="#636B6B"/>
<path d="M9.44446 15.6296L9.19141 15.3379L9.44446 15.6296Z" fill="#636B6B"/>
<path d="M9.05078 16.2207L9.06728 16.2398L9.05078 16.2207Z" fill="#F3210B"/>
<path d="M9.06887 16.2401L8.73047 16.5351C8.79111 16.4542 8.88622 16.3291 9.00977 16.1719L9.05237 16.2211L9.06887 16.2401Z" fill="#F3210B"/>
<path d="M10.4766 14.4817C10.7423 14.2071 11.0224 13.9358 11.3072 13.6888C11.8758 13.1953 12.184 12.8427 12.7694 13.015L10.7477 14.7773C10.6675 14.6705 10.5771 14.5708 10.4766 14.4817Z" fill="#F3210B"/>
<path d="M10.7428 14.7819L10.2364 15.2233C10.1702 15.1351 10.0954 15.0528 10.0117 14.9797C10.1583 14.8169 10.3122 14.6511 10.4716 14.4863C10.5722 14.5754 10.6626 14.6751 10.7428 14.7819Z" fill="#F3210B"/>
<path d="M9.52344 15.5329C9.67211 15.3561 9.83517 15.1678 10.009 14.9746C10.0925 15.0477 10.1674 15.13 10.2336 15.2183L9.67853 15.7022C9.63261 15.641 9.58091 15.584 9.52344 15.5329Z" fill="#F3210B"/>
<path d="M9.44922 15.6315C9.47499 15.6005 9.50157 15.5689 9.52831 15.5371C9.5857 15.5882 9.63748 15.6453 9.68333 15.7064L9.58708 15.7903L9.44922 15.6315Z" fill="#F3210B"/>
<path d="M9.07082 16.2372L9.01172 16.1689C9.13251 16.0151 9.28013 15.8313 9.44872 15.6289L9.5865 15.7878L9.07082 16.2372Z" fill="#F3210B"/>
<path d="M9.07082 16.2402L9.05431 16.2211L9.01172 16.1719L9.07082 16.2402Z" fill="#F3210B"/>
<path d="M9.01172 16.1719L9.05431 16.2211L9.01172 16.1719Z" fill="#F3210B"/>
<path d="M16.3232 7.44748C15.5432 8.12435 15.4547 9.3015 16.1202 10.0875L15.7358 10.4227C14.8848 9.42385 14.9958 7.92387 15.989 7.06215C16.9794 6.20278 18.4743 6.30163 19.344 7.27741L18.9595 7.61259C18.2745 6.84875 17.1011 6.77249 16.3232 7.44748Z" fill="#636B6B"/>
<path d="M16.3248 7.45104C17.1027 6.77604 18.2762 6.8523 18.9612 7.61615L16.1219 10.091C15.4564 9.30505 15.5448 8.1279 16.3248 7.45104Z" fill="#68D8D5"/>
<path d="M9.28516 18.683L10.3034 17.6543L10.4198 17.7886C10.2327 17.9973 10.0519 18.1602 9.93099 18.2689C9.7489 18.4326 9.52812 18.5689 9.28516 18.683Z" fill="#FF7915"/>
<path d="M6.28802 18.7947C6.28802 18.7947 8.61544 18.8845 9.58504 18.0123C9.71283 17.8973 9.92482 17.7066 10.1211 17.4551L10.2994 17.6607L9.28119 18.6894C7.90336 19.3362 5.79688 19.2554 5.79688 19.2554C5.79688 19.2554 5.79874 19.1938 5.80533 19.0876L6.29484 18.6609C6.28956 18.7456 6.28802 18.7947 6.28802 18.7947Z" fill="#FF7915"/>
<path d="M6.83158 18.2848C6.83158 18.2848 8.51423 18.3497 9.21518 17.7191C9.34857 17.5991 9.60788 17.3645 9.77777 17.0488L10.126 17.4503C9.92978 17.7018 9.71786 17.8924 9.58999 18.0075C8.6204 18.8797 6.29297 18.7898 6.29297 18.7898C6.29297 18.7898 6.29451 18.7407 6.29972 18.6561L6.83638 18.1883C6.83272 18.2493 6.83158 18.2848 6.83158 18.2848Z" fill="#FFE774"/>
<path d="M8.65205 16.636C8.65205 16.636 8.84999 16.5312 9.16351 16.3496L9.77041 17.0492C9.60052 17.3648 9.34121 17.5995 9.20782 17.7194C8.50687 18.35 6.82422 18.2851 6.82422 18.2851C6.82422 18.2851 6.82536 18.2496 6.8291 18.1887L8.72838 16.5332C8.67912 16.5988 8.65205 16.636 8.65205 16.636Z" fill="#FFF4E4"/>
<path d="M13.3295 21.9938C13.1391 22.159 13.4499 18.7898 12.4297 17.5196C13.3321 17.0748 14.293 16.5127 15.2794 15.8477C15.802 17.7696 15.3569 20.2346 13.3295 21.9938Z" fill="#E71606"/>
<path d="M23.2632 8.20955L21.1172 5.7359L24.7892 2.53516C24.8003 2.54703 24.8121 2.55824 24.8228 2.5706C25.6942 3.57492 25.0167 5.72274 23.2632 8.20955Z" fill="#E71606"/>
<path d="M15.731 10.4211C15.7357 10.4267 15.74 10.4324 15.7449 10.438C16.6113 11.4368 18.1233 11.5439 19.1219 10.6774C20.1206 9.81086 20.2278 8.29869 19.3613 7.29998C19.3541 7.29177 19.3465 7.28405 19.3392 7.27592L20.7223 6.07031L22.946 8.63354C21.8068 10.167 20.2801 11.8088 18.4712 13.3784C17.9977 13.7892 17.5222 14.1799 17.0479 14.5496L14.4414 11.5452L15.731 10.4211Z" fill="#D5E5E5"/>
<path d="M13.1743 12.6602L12.7683 13.014C12.7895 13.0203 12.8103 13.0256 12.8322 13.0332C12.9049 13.6715 12.3954 14.0301 11.9384 14.4275C11.6372 14.6894 11.3112 14.942 10.9858 15.1769C10.802 15.3095 10.6185 15.4364 10.4395 15.5561C10.2273 15.6982 10.0219 15.8299 9.83033 15.9494C9.80863 15.9628 9.78692 15.9764 9.76562 15.9896L9.89967 16.1442L10.4853 16.8193L10.8386 17.2265L10.9904 17.4014L11.4694 17.9536C11.7806 17.8234 12.1012 17.6768 12.4294 17.515C13.3318 17.0703 14.2927 16.5082 15.2791 15.8431C15.416 15.7508 15.5531 15.6573 15.6908 15.561L13.1743 12.6602Z" fill="#D5E5E5"/>
<path d="M21.125 5.73438L23.271 8.20802C23.1714 8.34923 23.0684 8.4915 22.962 8.63474L20.7383 6.07151L21.125 5.73438Z" fill="#E3C030"/>
<path d="M17.0551 14.5493C16.5959 14.9072 16.1381 15.2452 15.6846 15.562L13.168 12.6612L14.4486 11.5449L17.0551 14.5493Z" fill="#E3C030"/>
<path d="M10.9887 17.4053L11.1542 17.5961L10.6376 18.0445L10.418 17.7913C10.5622 17.6305 10.7099 17.4422 10.8369 17.2305L10.9887 17.4053Z" fill="#636B6B"/>
<path d="M10.2994 17.6542L10.1211 17.4486C10.2616 17.2686 10.3937 17.0573 10.4817 16.8203L10.835 17.2275C10.7079 17.4393 10.5602 17.6276 10.416 17.7884L10.2994 17.6542Z" fill="#636B6B"/>
<path d="M9.92479 16.2864C9.91821 16.2414 9.90886 16.1959 9.89659 16.1504L10.4823 16.8255C10.3944 17.0624 10.2622 17.2737 10.1217 17.4537L9.77344 17.0523C9.89163 16.8326 9.9669 16.5742 9.92479 16.2864Z" fill="#636B6B"/>
<path d="M9.75608 15.9883L9.89012 16.1429C9.90231 16.1885 9.91174 16.234 9.91833 16.2789C9.96043 16.5667 9.88516 16.8251 9.76705 17.0447L9.16016 16.3452C9.32932 16.2472 9.53189 16.127 9.75608 15.9883Z" fill="#636B6B"/>
<path d="M10.832 17.2305L10.9838 17.4053L10.832 17.2305Z" fill="#636B6B"/>
<path d="M12.8262 13.0348C12.8042 13.0272 12.7835 13.0219 12.7623 13.0156L10.7405 14.7779L10.2341 15.2194L9.67901 15.7033L9.58276 15.7872L9.06715 16.2367L8.72867 16.5317C8.67949 16.5973 8.65234 16.6346 8.65234 16.6346C8.65234 16.6346 8.85028 16.5298 9.1638 16.3482C9.33296 16.2502 9.53553 16.13 9.75972 15.9913C9.78102 15.9781 9.80273 15.9645 9.82443 15.951C10.016 15.8316 10.2214 15.6999 10.4336 15.5578C10.6126 15.4381 10.7961 15.3112 10.9799 15.1786C11.3053 14.9437 11.6313 14.6911 11.9325 14.4292C12.3895 14.0317 12.8989 13.6731 12.8262 13.0348Z" fill="#E71606"/>
<path d="M19.1332 10.6808C18.1346 11.5474 16.6225 11.4402 15.7561 10.4414C15.7512 10.4359 15.747 10.4301 15.7422 10.4246L16.1267 10.0893C16.1316 10.0952 16.1363 10.1012 16.1413 10.1071C16.8232 10.8929 18.013 10.9773 18.7988 10.2954C19.5847 9.61352 19.669 8.42361 18.9871 7.63773C18.9802 7.62976 18.9729 7.62236 18.9659 7.61448L19.3504 7.2793C19.3576 7.28743 19.3653 7.29515 19.3724 7.30336C20.239 8.30215 20.1319 9.81432 19.1332 10.6808Z" fill="#575E5E"/>
<path d="M18.9854 7.63458C19.6674 8.42046 19.583 9.61045 18.7972 10.2923C18.0113 10.9742 16.8215 10.8898 16.1396 10.1039C16.1346 10.0981 16.13 10.092 16.125 10.0862L18.9643 7.61133C18.9712 7.61921 18.9785 7.62661 18.9854 7.63458Z" fill="#60C9C4"/>
</g>
<defs>
<filter id="filter0_d_2295_5104" x="0" y="0" width="29.2031" height="28" filterUnits="userSpaceOnUse" color-interpolation-filters="sRGB">
<feFlood flood-opacity="0" result="BackgroundImageFix"/>
<feColorMatrix in="SourceAlpha" type="matrix" values="0 0 0 0 0 0 0 0 0 0 0 0 0 0 0 0 0 0 127 0" result="hardAlpha"/>
<feOffset dy="2"/>
<feGaussianBlur stdDeviation="2"/>
<feComposite in2="hardAlpha" operator="out"/>
<feColorMatrix type="matrix" values="0 0 0 0 0 0 0 0 0 0 0 0 0 0 0 0 0 0 0.2 0"/>
<feBlend mode="color-burn" in2="BackgroundImageFix" result="effect1_dropShadow_2295_5104"/>
<feBlend mode="normal" in="SourceGraphic" in2="effect1_dropShadow_2295_5104" result="shape"/>
</filter>
</defs>
</svg>
