<svg width="11" height="11" viewBox="0 0 11 11" fill="none" xmlns="http://www.w3.org/2000/svg">
<path d="M10.7205 0.460524C10.7449 0.399508 10.7509 0.332666 10.7376 0.268284C10.7244 0.203903 10.6926 0.144813 10.6462 0.0983401C10.5997 0.0518675 10.5406 0.0200558 10.4762 0.00684895C10.4118 -0.0063579 10.345 -0.000379128 10.284 0.0240441L0.51555 3.93155L0.211357 4.05242C0.153869 4.07535 0.103839 4.11372 0.0667918 4.16331C0.0297448 4.21289 0.00712319 4.27174 0.00142576 4.33337C-0.00427168 4.395 0.00717681 4.457 0.0345066 4.51254C0.0618364 4.56807 0.103984 4.61496 0.156293 4.64805L0.431611 4.82264L0.432283 4.82398L3.78646 6.95803L5.92052 10.3122L5.92186 10.3136L6.09645 10.5889C6.12964 10.641 6.17656 10.6829 6.23205 10.7101C6.28754 10.7372 6.34945 10.7486 6.41096 10.7428C6.47247 10.737 6.5312 10.7144 6.58068 10.6774C6.63016 10.6404 6.66847 10.5905 6.69141 10.5331L10.7205 0.460524ZM9.48958 1.72967L4.4573 6.76195L4.31293 6.53498C4.28647 6.49333 4.25116 6.45802 4.20951 6.43157L3.98254 6.2872L9.01482 1.25492L9.80586 0.938637L9.48958 1.72967Z" fill="#1C264E"/>
</svg>
