<svg width="35" height="35" viewBox="0 0 35 35" fill="none" xmlns="http://www.w3.org/2000/svg">
<path d="M16.2753 3.65077C16.6487 2.50166 18.2744 2.50166 18.6477 3.65077L21.1019 11.2038C21.2688 11.7177 21.7477 12.0656 22.2881 12.0656H30.2298C31.438 12.0656 31.9404 13.6117 30.9629 14.3219L24.5379 18.99C24.1008 19.3076 23.9179 19.8705 24.0848 20.3844L26.539 27.9374C26.9123 29.0866 25.5971 30.0421 24.6196 29.3319L18.1947 24.6639C17.7575 24.3463 17.1656 24.3463 16.7284 24.6639L10.3034 29.3319C9.32595 30.0421 8.01074 29.0866 8.38411 27.9374L10.8382 20.3844C11.0052 19.8705 10.8223 19.3076 10.3851 18.99L3.96016 14.3219C2.98267 13.6117 3.48503 12.0656 4.69328 12.0656H12.635C13.1753 12.0656 13.6542 11.7177 13.8212 11.2038L16.2753 3.65077Z" fill="white"/>
</svg>
