<svg width="19" height="19" viewBox="0 0 19 19" fill="none" xmlns="http://www.w3.org/2000/svg">
<path d="M6.22092 7.00022H12.4431M6.22092 10.1113H10.8876M13.9987 3.11133C14.6175 3.11133 15.211 3.35716 15.6486 3.79475C16.0862 4.23233 16.332 4.82582 16.332 5.44466V11.6669C16.332 12.2857 16.0862 12.8792 15.6486 13.3168C15.211 13.7544 14.6175 14.0002 13.9987 14.0002H10.1098L6.22092 16.3335V14.0002H4.66536C4.04653 14.0002 3.45303 13.7544 3.01545 13.3168C2.57786 12.8792 2.33203 12.2857 2.33203 11.6669V5.44466C2.33203 4.82582 2.57786 4.23233 3.01545 3.79475C3.45303 3.35716 4.04653 3.11133 4.66536 3.11133H13.9987Z" stroke="#1C264E" stroke-width="1.11111" stroke-linecap="round" stroke-linejoin="round"/>
</svg>
