<svg width="4" height="15" viewBox="0 0 4 15" fill="none" xmlns="http://www.w3.org/2000/svg">
<path d="M1.97368 3.75C3.05921 3.75 3.94737 2.90625 3.94737 1.875C3.94737 0.84375 3.05921 0 1.97368 0C0.888158 0 0 0.84375 0 1.875C0 2.90625 0.888158 3.75 1.97368 3.75ZM1.97368 5.625C0.888158 5.625 0 6.46875 0 7.5C0 8.53125 0.888158 9.375 1.97368 9.375C3.05921 9.375 3.94737 8.53125 3.94737 7.5C3.94737 6.46875 3.05921 5.625 1.97368 5.625ZM1.97368 11.25C0.888158 11.25 0 12.0937 0 13.125C0 14.1563 0.888158 15 1.97368 15C3.05921 15 3.94737 14.1563 3.94737 13.125C3.94737 12.0937 3.05921 11.25 1.97368 11.25Z" fill="#1C264E"/>
</svg>
